<svg width="32" height="32" viewBox="0 0 32 32" fill="none" xmlns="http://www.w3.org/2000/svg">
<path d="M10.6665 3.99984H11.9998C9.39984 11.7865 9.39984 20.2132 11.9998 27.9998H10.6665M19.9998 3.99984C22.5998 11.7865 22.5998 20.2132 19.9998 27.9998M3.99984 21.3332V19.9998C11.7865 22.5998 20.2132 22.5998 27.9998 19.9998V21.3332M3.99984 11.9998C11.7865 9.39984 20.2132 9.39984 27.9998 11.9998M29.3332 15.9998C29.3332 23.3636 23.3636 29.3332 15.9998 29.3332C8.63604 29.3332 2.6665 23.3636 2.6665 15.9998C2.6665 8.63604 8.63604 2.6665 15.9998 2.6665C23.3636 2.6665 29.3332 8.63604 29.3332 15.9998Z" stroke="#3C6562" stroke-width="2" stroke-linecap="round" stroke-linejoin="round"/>
</svg>
