<svg width="34" height="34" viewBox="0 0 34 34" fill="none" xmlns="http://www.w3.org/2000/svg">
<path d="M24.7915 1.4165H9.20817C4.90495 1.4165 1.4165 4.90495 1.4165 9.20817V24.7915C1.4165 29.0947 4.90495 32.5832 9.20817 32.5832H24.7915C29.0947 32.5832 32.5832 29.0947 32.5832 24.7915V9.20817C32.5832 4.90495 29.0947 1.4165 24.7915 1.4165Z" fill="#3C6562"/>
<path d="M23.2327 16.0124C23.4251 17.3093 23.2035 18.6338 22.5997 19.7976C21.9958 20.9613 21.0404 21.9051 19.8693 22.4945C18.6982 23.084 17.371 23.2892 16.0765 23.0809C14.7821 22.8726 13.5863 22.2614 12.6592 21.3343C11.7321 20.4072 11.121 19.2114 10.9127 17.917C10.7044 16.6225 10.9095 15.2954 11.499 14.1243C12.0885 12.9531 13.0322 11.9977 14.1959 11.3938C15.3597 10.79 16.6842 10.5685 17.9812 10.7608C19.3041 10.957 20.5288 11.5734 21.4745 12.5191C22.4201 13.4647 23.0366 14.6895 23.2327 16.0124Z" stroke="white" stroke-width="2" stroke-linecap="round" stroke-linejoin="round"/>
<path d="M25.5708 8.4292H25.5864" stroke="white" stroke-width="2" stroke-linecap="round" stroke-linejoin="round"/>
</svg>
