<svg width="34" height="34" viewBox="0 0 34 34" fill="none" xmlns="http://www.w3.org/2000/svg">
<path fill-rule="evenodd" clip-rule="evenodd" d="M1.4165 4.02034C1.4165 3.32976 1.69084 2.66747 2.17915 2.17915C2.66746 1.69084 3.32976 1.41651 4.02034 1.41651H29.9765C30.3187 1.41595 30.6577 1.4829 30.974 1.61352C31.2904 1.74414 31.5778 1.93587 31.8199 2.17773C32.0621 2.4196 32.2541 2.70684 32.3851 3.02302C32.516 3.3392 32.5834 3.67811 32.5832 4.02034V29.9765C32.5835 30.3188 32.5164 30.6578 32.3856 30.9741C32.2549 31.2905 32.063 31.5779 31.821 31.82C31.5791 32.0621 31.2917 32.2542 30.9755 32.3851C30.6592 32.5161 30.3202 32.5834 29.9779 32.5832H4.02034C3.67828 32.5832 3.33957 32.5158 3.02357 32.3848C2.70756 32.2539 2.42046 32.062 2.17865 31.82C1.93684 31.5781 1.74507 31.2909 1.6143 30.9748C1.48353 30.6587 1.41632 30.32 1.4165 29.9779V4.02034ZM13.7528 13.2995H17.9731V15.4188C18.5823 14.2005 20.1406 13.104 22.4823 13.104C26.9718 13.104 28.0357 15.5308 28.0357 19.9833V28.2312H23.4924V20.9977C23.4924 18.4618 22.8833 17.031 21.3363 17.031C19.19 17.031 18.2975 18.5738 18.2975 20.9977V28.2312H13.7528V13.2995ZM5.96117 28.0371H10.5058V13.104H5.96117V28.0357V28.0371ZM11.1561 8.23351C11.1647 8.62263 11.0954 9.00954 10.9524 9.37154C10.8094 9.73353 10.5956 10.0633 10.3234 10.3416C10.0512 10.6198 9.72624 10.8408 9.36748 10.9918C9.00872 11.1427 8.62343 11.2204 8.23421 11.2204C7.845 11.2204 7.45971 11.1427 7.10094 10.9918C6.74218 10.8408 6.41718 10.6198 6.14501 10.3416C5.87284 10.0633 5.65899 9.73353 5.516 9.37154C5.37301 9.00954 5.30377 8.62263 5.31234 8.23351C5.32916 7.46972 5.64438 6.74288 6.19051 6.20865C6.73663 5.67441 7.47024 5.37527 8.23421 5.37527C8.99819 5.37527 9.73179 5.67441 10.2779 6.20865C10.824 6.74288 11.1393 7.46972 11.1561 8.23351Z" fill="#3C6562"/>
</svg>
