<svg width="408" height="163" viewBox="0 0 408 163" fill="none" xmlns="http://www.w3.org/2000/svg">
<path d="M113.92 126V98H131.56V101.92H118.24V109.96H130.44V113.88H118.24V122.08H131.76V126H113.92ZM136.264 126V98H140.584V110H152.344V98H156.664V126H152.344V113.92H140.584V126H136.264ZM162.514 126V98H174.274C176.007 98 177.527 98.3067 178.834 98.92C180.167 99.5067 181.194 100.36 181.914 101.48C182.66 102.6 183.034 103.933 183.034 105.48V105.92C183.034 107.68 182.607 109.093 181.754 110.16C180.927 111.2 179.914 111.933 178.714 112.36V113C179.727 113.053 180.54 113.4 181.154 114.04C181.767 114.653 182.074 115.547 182.074 116.72V126H177.714V117.32C177.714 116.6 177.527 116.027 177.154 115.6C176.78 115.173 176.18 114.96 175.354 114.96H166.834V126H162.514ZM166.834 111.04H173.794C175.34 111.04 176.54 110.653 177.394 109.88C178.247 109.08 178.674 108 178.674 106.64V106.32C178.674 104.96 178.247 103.893 177.394 103.12C176.567 102.32 175.367 101.92 173.794 101.92H166.834V111.04ZM187.787 126V98H192.107V126H187.787ZM197.943 126V98H206.263L213.863 123.12H214.503V98H218.783V126H210.463L202.863 100.84H202.223V126H197.943ZM234.818 126V98H242.938L249.058 123.12H249.698L255.818 98H263.938V126H259.738V101.04H259.098L253.018 126H245.738L239.658 101.04H239.018V126H234.818ZM280.259 126.56C278.046 126.56 276.139 126.16 274.539 125.36C272.966 124.56 271.739 123.413 270.859 121.92C270.006 120.4 269.579 118.56 269.579 116.4V98H273.939V116.52C273.939 118.493 274.486 120.013 275.579 121.08C276.673 122.147 278.233 122.68 280.259 122.68C282.286 122.68 283.846 122.147 284.939 121.08C286.033 120.013 286.579 118.493 286.579 116.52V98H290.899V116.4C290.899 118.56 290.473 120.4 289.619 121.92C288.766 123.413 287.539 124.56 285.939 125.36C284.339 126.16 282.446 126.56 280.259 126.56ZM306.057 126.56C303.951 126.56 302.084 126.187 300.457 125.44C298.831 124.693 297.551 123.6 296.617 122.16C295.711 120.693 295.257 118.92 295.257 116.84V115.84H299.537V116.84C299.537 118.813 300.124 120.293 301.297 121.28C302.497 122.267 304.084 122.76 306.057 122.76C308.057 122.76 309.564 122.347 310.577 121.52C311.591 120.667 312.097 119.573 312.097 118.24C312.097 117.36 311.857 116.64 311.377 116.08C310.897 115.52 310.217 115.08 309.337 114.76C308.457 114.413 307.404 114.093 306.177 113.8L304.697 113.44C302.911 113.013 301.351 112.493 300.017 111.88C298.711 111.24 297.697 110.4 296.977 109.36C296.257 108.32 295.897 106.987 295.897 105.36C295.897 103.707 296.297 102.293 297.097 101.12C297.924 99.9467 299.057 99.04 300.497 98.4C301.937 97.76 303.631 97.44 305.577 97.44C307.524 97.44 309.257 97.7733 310.777 98.44C312.324 99.1067 313.537 100.093 314.417 101.4C315.297 102.707 315.737 104.347 315.737 106.32V107.76H311.457V106.32C311.457 105.12 311.204 104.147 310.697 103.4C310.217 102.653 309.537 102.107 308.657 101.76C307.777 101.413 306.751 101.24 305.577 101.24C303.871 101.24 302.537 101.6 301.577 102.32C300.644 103.013 300.177 103.987 300.177 105.24C300.177 106.093 300.377 106.8 300.777 107.36C301.204 107.893 301.817 108.333 302.617 108.68C303.417 109.027 304.417 109.333 305.617 109.6L307.097 109.96C308.911 110.36 310.511 110.88 311.897 111.52C313.284 112.133 314.377 112.973 315.177 114.04C315.977 115.107 316.377 116.48 316.377 118.16C316.377 119.84 315.951 121.307 315.097 122.56C314.271 123.813 313.084 124.8 311.537 125.52C309.991 126.213 308.164 126.56 306.057 126.56ZM326.538 126V101.92H317.938V98H339.458V101.92H330.858V126H326.538ZM338.52 126L346.52 98H354.12L362.08 126H357.64L355.8 119.4H344.84L343 126H338.52ZM345.92 115.4H354.72L350.64 100.68H350L345.92 115.4ZM365.873 126V98H383.153V101.92H370.193V110H382.113V113.92H370.193V126H365.873ZM383.52 126L391.52 98H399.12L407.08 126H402.64L400.8 119.4H389.84L388 126H383.52ZM390.92 115.4H399.72L395.64 100.68H395L390.92 115.4Z" fill="#00454A"/>
<path d="M10.24 126V36.4H30.72L54.528 119.216H56.192L80 36.4H100.48V126H90.112V43.44H88.32L64.64 126H46.08L22.4 43.44H20.608V126H10.24Z" fill="#00454A"/>
</svg>
