<svg width="501" height="322" viewBox="0 0 501 322" fill="none" xmlns="http://www.w3.org/2000/svg">
<path d="M408.351 6.02861C353.919 -1.34791 322.985 30.0787 249.829 33.4905C177.141 27.5689 149.45 -4.86886 94.3472 0.623523C35.0788 6.53056 -10.8262 86.9158 2.23663 167.33C15.2994 247.744 96.2553 292.695 137.638 292.455C170.718 292.229 199.933 278.218 237.647 274.872C274.962 279.506 302.716 294.513 335.712 295.859C376.997 297.561 462.349 255.47 483.491 175.652C504.634 95.8345 466.92 13.9798 408.351 6.02861Z" fill="#308772"/>
<path opacity="0.7" d="M408.351 6.02861C353.919 -1.34791 322.985 30.0787 249.829 33.4905C177.141 27.5689 149.45 -4.86886 94.3472 0.623523C35.0788 6.53056 -10.8262 86.9158 2.23663 167.33C15.2994 247.744 96.2553 292.695 137.638 292.455C170.718 292.229 199.933 278.218 237.647 274.872C274.962 279.506 302.716 294.513 335.712 295.859C376.997 297.561 462.349 255.47 483.491 175.652C504.634 95.8345 466.92 13.9798 408.351 6.02861Z" fill="white"/>
<g opacity="0.3">
<path d="M431.415 6.74121H400.188V64.7277H431.415V6.74121Z" stroke="black" stroke-linejoin="round"/>
<path d="M465.704 6.74121H434.477V64.7277H465.704V6.74121Z" stroke="black" stroke-linejoin="round"/>
<path d="M500 6.74121H468.772V64.7277H500V6.74121Z" stroke="black" stroke-linejoin="round"/>
<path d="M431.415 69.6748H400.188V127.661H431.415V69.6748Z" stroke="black" stroke-linejoin="round"/>
<path d="M465.704 69.6748H434.477V127.661H465.704V69.6748Z" stroke="black" stroke-linejoin="round"/>
<path d="M500 69.6748H468.772V127.661H500V69.6748Z" stroke="black" stroke-linejoin="round"/>
<path d="M431.415 132.607H400.188V190.594H431.415V132.607Z" stroke="black" stroke-linejoin="round"/>
<path d="M465.704 132.607H434.477V190.594H465.704V132.607Z" stroke="black" stroke-linejoin="round"/>
<path d="M500 132.607H468.772V190.594H500V132.607Z" stroke="black" stroke-linejoin="round"/>
<path d="M431.415 195.541H400.188V253.528H431.415V195.541Z" stroke="black" stroke-linejoin="round"/>
<path d="M465.704 195.541H434.477V253.528H465.704V195.541Z" stroke="black" stroke-linejoin="round"/>
<path d="M500 195.541H468.772V253.528H500V195.541Z" stroke="black" stroke-linejoin="round"/>
</g>
<g opacity="0.3">
<path d="M43.1935 6.74121H11.9658V64.7277H43.1935V6.74121Z" stroke="black" stroke-linejoin="round"/>
<path d="M77.4826 6.74121H46.2549V64.7277H77.4826V6.74121Z" stroke="black" stroke-linejoin="round"/>
<path d="M111.779 6.74121H80.5508V64.7277H111.779V6.74121Z" stroke="black" stroke-linejoin="round"/>
<path d="M43.1935 69.6748H11.9658V127.661H43.1935V69.6748Z" stroke="black" stroke-linejoin="round"/>
<path d="M77.4826 69.6748H46.2549V127.661H77.4826V69.6748Z" stroke="black" stroke-linejoin="round"/>
<path d="M111.779 69.6748H80.5508V127.661H111.779V69.6748Z" stroke="black" stroke-linejoin="round"/>
<path d="M43.1935 132.607H11.9658V190.594H43.1935V132.607Z" stroke="black" stroke-linejoin="round"/>
<path d="M77.4826 132.607H46.2549V190.594H77.4826V132.607Z" stroke="black" stroke-linejoin="round"/>
<path d="M111.779 132.607H80.5508V190.594H111.779V132.607Z" stroke="black" stroke-linejoin="round"/>
<path d="M43.1935 195.541H11.9658V253.528H43.1935V195.541Z" stroke="black" stroke-linejoin="round"/>
<path d="M77.4826 195.541H46.2549V253.528H77.4826V195.541Z" stroke="black" stroke-linejoin="round"/>
<path d="M111.779 195.541H80.5508V253.528H111.779V195.541Z" stroke="black" stroke-linejoin="round"/>
</g>
<path d="M3.48047 317.639H499.86" stroke="#263238" stroke-linejoin="round"/>
<path d="M459.595 199.957C459.605 199.945 459.611 199.929 459.611 199.913C459.611 199.897 459.605 199.881 459.595 199.869C459.587 199.865 459.578 199.862 459.569 199.861C459.559 199.86 459.55 199.862 459.541 199.865C459.533 199.869 459.525 199.874 459.518 199.881C459.512 199.888 459.507 199.897 459.504 199.906C457.492 204.923 455.902 210.112 454.752 215.415C453.572 220.718 452.681 226.086 452.082 231.492L451.704 235.559C451.648 236.236 451.579 236.912 451.53 237.596L451.425 239.633C451.369 240.993 451.292 242.354 451.25 243.714V247.802L451.299 249.839C451.299 250.523 451.376 251.2 451.418 251.883C451.516 253.236 451.592 277.221 451.711 278.574C451.963 281.28 452.354 283.979 452.76 286.656C452.756 286.667 452.755 286.679 452.757 286.69C452.759 286.702 452.763 286.712 452.769 286.722C452.776 286.731 452.784 286.739 452.794 286.744C452.804 286.749 452.815 286.752 452.826 286.752C452.837 286.752 452.848 286.749 452.858 286.744C452.868 286.739 452.876 286.731 452.883 286.722C452.889 286.712 452.893 286.702 452.895 286.69C452.897 286.679 452.896 286.667 452.892 286.656C452.892 285.296 452.837 283.943 452.802 282.583C452.767 281.222 452.655 279.884 452.669 278.531C452.683 277.177 452.669 253.2 452.627 251.854L452.592 249.825L452.627 247.802V243.758L452.732 239.706L452.767 237.683C452.767 237.007 452.844 236.337 452.878 235.661L453.116 231.616C453.562 226.243 454.297 220.899 455.318 215.612C456.308 210.275 457.739 205.037 459.595 199.957Z" fill="#263238"/>
<path d="M460.154 221.126C460.157 221.117 460.159 221.108 460.158 221.098C460.158 221.088 460.156 221.079 460.152 221.07C460.148 221.061 460.143 221.053 460.136 221.047C460.129 221.04 460.121 221.035 460.112 221.032C460.104 221.029 460.094 221.027 460.085 221.027C460.076 221.028 460.067 221.03 460.058 221.034C460.05 221.038 460.042 221.044 460.036 221.051C460.029 221.058 460.025 221.066 460.021 221.076C457.801 227.83 456.324 234.824 455.618 241.925C455.276 245.468 454.919 249.018 454.849 252.575C454.78 256.132 454.849 282.321 455.213 285.878C455.213 285.896 455.219 285.912 455.231 285.925C455.243 285.937 455.259 285.944 455.276 285.944C455.285 285.945 455.294 285.944 455.302 285.941C455.31 285.938 455.318 285.934 455.325 285.927C455.331 285.921 455.337 285.914 455.34 285.905C455.344 285.897 455.346 285.888 455.346 285.878C455.744 282.336 455.989 256.176 456.219 252.64C456.45 249.105 456.492 245.555 456.716 242.019C457.192 234.953 458.343 227.954 460.154 221.126Z" fill="#263238"/>
<path d="M471.429 228.583C471.416 228.572 471.4 228.565 471.383 228.565C471.367 228.565 471.351 228.572 471.338 228.583C468.518 230.471 465.977 232.777 463.797 235.428C462.698 236.759 461.712 238.185 460.847 239.691L460.239 240.884L459.771 242.121C459.607 242.529 459.467 242.947 459.351 243.372C459.233 243.794 459.1 244.216 458.988 244.638C458.142 248.035 457.59 274.13 457.429 277.607C457.259 281.089 457.383 284.58 457.8 288.039C457.804 288.054 457.812 288.067 457.823 288.078C457.834 288.088 457.848 288.095 457.863 288.097C457.872 288.099 457.882 288.099 457.891 288.097C457.9 288.095 457.909 288.09 457.917 288.084C457.924 288.078 457.93 288.07 457.934 288.061C457.938 288.051 457.94 288.042 457.94 288.032L458.799 277.709C459.142 274.297 459.351 248.246 460.057 244.915C460.141 244.5 460.26 244.093 460.358 243.678C460.453 243.267 460.57 242.861 460.707 242.463L461.113 241.27L461.63 240.142C462.414 238.646 463.317 237.22 464.328 235.879C466.339 233.142 468.724 230.725 471.408 228.707C471.421 228.705 471.434 228.699 471.444 228.689C471.454 228.68 471.46 228.667 471.463 228.653C471.465 228.639 471.463 228.625 471.457 228.612C471.451 228.599 471.441 228.589 471.429 228.583Z" fill="#263238"/>
<path d="M465.97 241.83C464.507 242.946 463.331 244.42 462.545 246.122C461.718 247.792 461.073 249.554 460.623 251.374C460.491 251.825 460.379 252.277 460.288 252.735L459.98 254.11C459.82 255.034 459.694 278.582 459.645 279.52C459.596 280.459 459.61 281.39 459.645 282.321C459.714 283.256 459.833 284.186 460.001 285.107C460.001 285.107 460.001 285.165 460.057 285.165C460.066 285.167 460.075 285.168 460.084 285.166C460.093 285.164 460.101 285.16 460.109 285.155C460.116 285.149 460.122 285.142 460.126 285.134C460.131 285.126 460.133 285.117 460.134 285.107C460.346 284.204 460.505 283.288 460.609 282.365C460.749 281.455 460.889 280.553 460.994 279.651C461.099 278.749 461.231 277.854 461.301 276.945C461.371 276.036 461.483 252.517 461.672 251.636C461.976 249.849 462.471 248.102 463.147 246.428C463.749 244.72 464.734 243.186 466.019 241.954C466.03 241.941 466.036 241.924 466.036 241.906C466.036 241.889 466.03 241.872 466.019 241.859C466.013 241.851 466.006 241.844 465.998 241.839C465.989 241.834 465.98 241.831 465.97 241.83Z" fill="#263238"/>
<path d="M450.16 252.168C449.79 247.584 449.063 243.052 448.378 238.513C447.693 233.974 446.931 229.463 446.134 224.953C445.338 220.443 444.443 215.947 443.513 211.466C443.512 211.456 443.508 211.447 443.503 211.439C443.498 211.43 443.491 211.423 443.483 211.418C443.475 211.413 443.467 211.409 443.457 211.407C443.448 211.405 443.439 211.405 443.429 211.407C443.412 211.411 443.397 211.421 443.386 211.436C443.376 211.451 443.371 211.469 443.374 211.487C444.128 216.005 444.813 220.537 445.47 225.069C446.127 229.601 446.749 234.134 447.301 238.68C447.854 243.227 448.259 247.781 448.804 252.32L450.419 288.577C450.419 288.586 450.42 288.594 450.423 288.602C450.427 288.61 450.431 288.617 450.437 288.624C450.443 288.63 450.45 288.634 450.457 288.638C450.465 288.641 450.473 288.643 450.482 288.643C450.491 288.644 450.501 288.643 450.51 288.64C450.519 288.636 450.527 288.631 450.533 288.624C450.54 288.617 450.545 288.609 450.548 288.599C450.552 288.59 450.553 288.58 450.551 288.57C450.607 287.421 450.607 286.271 450.635 285.122C450.663 283.972 450.586 282.823 450.565 281.674C450.517 279.375 450.328 254.459 450.16 252.168Z" fill="#263238"/>
<path d="M447.518 252.101C447.287 250.283 446.966 248.464 446.63 246.682L446.015 244.012C445.813 243.117 445.617 242.222 445.365 241.342C444.49 237.789 443.367 234.307 442.003 230.925L441.479 229.666L440.892 228.43C440.515 227.6 440.067 226.807 439.634 226.007C438.769 224.411 437.702 222.942 436.461 221.642C436.447 221.63 436.43 221.624 436.412 221.624C436.394 221.624 436.377 221.63 436.363 221.642C436.357 221.648 436.352 221.656 436.349 221.664C436.345 221.672 436.344 221.681 436.344 221.69C436.344 221.698 436.345 221.707 436.349 221.715C436.352 221.723 436.357 221.731 436.363 221.737C437.521 223.091 438.499 224.601 439.271 226.225C439.655 227.04 440.06 227.84 440.382 228.677L440.899 229.928L441.36 231.201C442.577 234.599 443.558 238.082 444.296 241.626C444.694 243.386 444.995 245.183 445.288 246.958L445.701 249.643C445.847 250.537 446.036 251.425 446.155 252.32C446.428 254.116 446.742 278.508 447.043 280.313C447.343 282.117 447.63 283.906 447.993 285.703C447.997 285.718 448.005 285.732 448.016 285.742C448.027 285.752 448.041 285.759 448.056 285.761C448.075 285.761 448.092 285.754 448.106 285.74C448.119 285.726 448.126 285.708 448.126 285.689C448.126 283.855 448.126 282.051 448.007 280.196C447.888 278.341 447.7 253.92 447.518 252.101Z" fill="#263238"/>
<path d="M443.876 252.335C443.059 249.935 442.115 247.578 441.081 245.272C440.043 242.971 438.876 240.736 437.586 238.579C437.572 238.568 437.555 238.562 437.537 238.562C437.52 238.562 437.503 238.568 437.488 238.579C437.477 238.593 437.471 238.611 437.471 238.63C437.471 238.648 437.477 238.666 437.488 238.681C438.617 240.915 439.616 243.218 440.48 245.577C441.374 247.92 442.178 250.298 442.856 252.714C443.534 255.129 444.037 280.212 444.652 282.634C445.267 285.057 445.791 287.508 446.49 289.931C446.496 289.946 446.505 289.96 446.517 289.97C446.53 289.981 446.544 289.987 446.56 289.989C446.578 289.987 446.595 289.979 446.608 289.966C446.621 289.953 446.629 289.935 446.63 289.916C446.653 287.357 446.419 284.801 445.931 282.292C445.54 279.768 444.687 254.772 443.876 252.335Z" fill="#263238"/>
<path d="M443.695 282.961C443.249 281.462 442.597 280.039 441.759 278.735C440.969 277.403 440.046 253.528 438.963 252.466C438.403 251.944 437.803 251.472 437.167 251.055C436.538 250.633 435.853 250.312 435.133 250.101C435.118 250.1 435.102 250.103 435.089 250.112C435.076 250.12 435.066 250.133 435.06 250.147C435.055 250.162 435.054 250.179 435.058 250.194C435.063 250.21 435.072 250.223 435.084 250.232C436.382 250.884 437.532 251.814 438.46 252.96C439.41 254.066 440.172 277.964 440.808 279.288C441.444 280.612 441.822 282.059 442.402 283.412C442.66 284.14 442.912 284.809 443.213 285.5C443.462 286.225 443.756 286.932 444.093 287.617C444.098 287.628 444.105 287.638 444.116 287.645C444.126 287.651 444.137 287.654 444.149 287.653C444.167 287.654 444.185 287.647 444.199 287.635C444.213 287.623 444.223 287.607 444.226 287.588C444.247 286.806 444.219 286.024 444.142 285.245C444.058 284.489 443.905 283.725 443.695 282.961Z" fill="#263238"/>
<path d="M443.996 218.021C441.798 217.382 439.81 216.132 438.246 214.404C436.682 212.675 435.601 210.535 435.119 208.214C433.456 200.125 438.824 203.588 434.015 190.886C429.207 178.184 430.311 175.296 431.974 171.637C433.638 167.978 434.567 169.135 436.049 173.943C437.531 178.752 442.891 186.267 444.925 200.321C446.959 214.376 443.996 218.021 443.996 218.021Z" fill="#308772"/>
<path d="M458.24 204.351C458.24 204.351 453.431 202.62 453.25 193.192C453.068 183.764 456.744 185.684 457.317 173.936C457.891 162.187 458.61 153.916 460.644 153.727C462.678 153.537 468.039 159.474 469.891 172.568C471.743 185.662 467.487 194.319 463.789 198.175C460.092 202.03 458.24 204.351 458.24 204.351Z" fill="#308772"/>
<path d="M441.41 229.376C441.41 229.376 440.298 222.451 438.083 219.192C435.867 215.932 431.052 213.03 427.906 206.679C424.761 200.328 421.253 197.222 421.435 206.294C421.616 215.365 425.502 219.963 430.311 223.025C435.119 226.088 441.41 229.376 441.41 229.376Z" fill="#308772"/>
<path d="M439.375 241.314C439.375 241.314 434.937 232.461 428.465 225.913C421.993 219.366 416.814 216.093 418.68 219.366C420.546 222.64 422.748 222.451 425.893 228.227C429.038 234.003 428.116 238.237 432.554 241.503C436.992 244.769 439.375 241.314 439.375 241.314Z" fill="#308772"/>
<path d="M438.802 252.669C438.614 252.095 438.432 247.861 432.142 244.391C425.851 240.921 419.931 242.274 420.672 244.005C421.413 245.737 425.299 248.632 429.178 250.363C433.057 252.095 438.802 252.669 438.802 252.669Z" fill="#308772"/>
<path d="M457.869 229.762C457.869 229.762 455.073 226.125 456.576 218.406C458.078 210.688 461.384 212.63 465.081 208.585C468.779 204.541 468.038 203.966 471.742 199.732C475.446 195.498 478.731 193.185 480.248 194.923C481.765 196.662 479.507 202.045 477.292 205.108C475.076 208.171 471.553 209.727 469.89 213.583C468.227 217.439 468.967 223.593 464.711 226.474C460.455 229.354 457.869 229.762 457.869 229.762Z" fill="#308772"/>
<path d="M467.116 231.878C467.116 231.878 473.777 223.985 478.585 218.216C483.394 212.447 485.239 208.032 485.428 211.858C485.617 215.685 487.091 218.791 483.205 223.796C479.319 228.801 467.116 231.878 467.116 231.878Z" fill="#308772"/>
<path d="M463.6 244.587C463.6 244.587 463.418 241.502 473.958 234.402C484.498 227.302 488.943 225.935 487.831 228.823C486.72 231.711 482.1 234.599 477.103 239.793C472.106 244.987 463.6 244.587 463.6 244.587Z" fill="#308772"/>
<path d="M444.436 217.197C444.436 217.197 441.962 203.376 439.376 193.569C436.79 183.763 435.119 177.791 435.119 177.791" stroke="#ABABAB" stroke-linecap="round" stroke-linejoin="round"/>
<path d="M457.813 204.497C457.813 204.497 462.308 189.533 463.789 180.49C465.271 171.448 463.601 164.704 462.867 160.66" stroke="#ABABAB" stroke-linecap="round" stroke-linejoin="round"/>
<path d="M440.829 229.092C438.838 225.526 436.558 222.143 434.015 218.98C429.94 213.975 426.795 211.284 424.929 206.468" stroke="#ABABAB" stroke-linecap="round" stroke-linejoin="round"/>
<path d="M457.869 229.762C457.869 229.762 459.351 220.523 462.866 215.714C466.382 210.906 473.406 203.391 476.181 198.575" stroke="#ABABAB" stroke-linecap="round" stroke-linejoin="round"/>
<path d="M438.383 252.458C438.383 252.458 432.163 248.246 427.725 245.911" stroke="#ABABAB" stroke-linecap="round" stroke-linejoin="round"/>
<path d="M455.521 317.639H447.378C446.673 317.639 445.984 317.422 445.397 317.016C444.81 316.609 444.352 316.032 444.079 315.355C441.416 308.72 438.593 276.988 438.593 276.988H464.299C464.299 276.988 461.503 308.72 458.819 315.355C458.546 316.031 458.087 316.608 457.501 317.014C456.914 317.421 456.225 317.638 455.521 317.639Z" fill="#263238"/>
<path d="M456.094 229.31C456.094 229.31 452.599 233.144 449.804 232.016C447.008 230.889 445.016 228.553 441.997 230.961C438.977 233.369 440.934 238.04 444.394 243.03C447.854 248.02 450.118 250.305 452.669 247.788C455.22 245.271 461.503 241.902 461.72 235.362C461.937 228.823 462.377 226.567 456.094 229.31Z" fill="#308772"/>
<path d="M461.077 248.224C459.797 249.774 458.032 250.805 456.094 251.134C452.676 251.862 448.643 248.522 448.79 252.313C448.937 256.103 452.194 259.478 457.177 259.253C462.16 259.027 465.62 260.155 466.487 262.162C467.353 264.17 469.981 262.388 468.87 256.299C467.759 250.21 465.62 247.308 461.077 248.224Z" fill="#308772"/>
<path d="M446.344 258.133C444.976 257.87 443.568 257.948 442.234 258.358C439.851 259.035 439.201 260.839 440.068 263.32C440.934 265.8 443.101 268.048 443.968 266.23C444.834 264.411 445.044 263.32 447.462 262.629C449.881 261.937 449.161 258.133 446.344 258.133Z" fill="#308772"/>
<path d="M48.5606 199.957C48.564 199.949 48.5658 199.94 48.5659 199.931C48.5659 199.922 48.5643 199.913 48.561 199.905C48.5578 199.897 48.553 199.89 48.5469 199.884C48.5408 199.877 48.5336 199.873 48.5257 199.869C48.5176 199.865 48.5086 199.862 48.4993 199.861C48.49 199.86 48.4806 199.862 48.472 199.865C48.4633 199.869 48.4554 199.874 48.449 199.881C48.4426 199.888 48.4377 199.897 48.4348 199.906C46.4229 204.923 44.8328 210.112 43.6822 215.415C42.5194 220.719 41.6444 226.087 41.0612 231.492L40.6838 235.559C40.6279 236.236 40.558 236.912 40.5091 237.596L40.4042 239.633C40.3483 240.993 40.2644 242.354 40.2295 243.714V247.802L40.2784 249.839C40.2784 250.523 40.3483 251.2 40.3972 251.883C40.4951 253.236 40.572 277.221 40.6908 278.574C40.9424 281.28 41.3338 283.979 41.7392 286.656C41.7409 286.674 41.749 286.691 41.7619 286.703C41.7749 286.715 41.7917 286.722 41.809 286.722C41.8258 286.719 41.841 286.71 41.8524 286.697C41.8638 286.683 41.8707 286.667 41.872 286.649C41.872 285.289 41.809 283.936 41.7811 282.575C41.7531 281.215 41.6343 279.876 41.6483 278.523C41.6623 277.17 41.6483 253.193 41.6064 251.847V249.817V247.795V243.75L41.7182 239.698V237.676C41.7182 236.999 41.7951 236.33 41.83 235.654L42.0676 231.609C42.5131 226.235 43.2481 220.892 44.2692 215.605C45.2647 210.27 46.7005 205.035 48.5606 199.957Z" fill="#263238"/>
<path d="M49.1204 221.126C49.1236 221.117 49.125 221.108 49.1247 221.098C49.1243 221.088 49.1221 221.079 49.1182 221.07C49.1143 221.061 49.1088 221.053 49.102 221.047C49.0952 221.04 49.0872 221.035 49.0784 221.032C49.0697 221.029 49.0605 221.027 49.0512 221.027C49.0419 221.028 49.0328 221.03 49.0243 221.034C49.0159 221.038 49.0083 221.044 49.002 221.051C48.9957 221.058 48.9908 221.066 48.9876 221.076C46.7769 227.831 45.3091 234.825 44.6123 241.925C44.2699 245.468 43.9134 249.018 43.8435 252.575C43.7736 256.132 43.8435 282.321 44.207 285.878C44.2069 285.895 44.2125 285.91 44.2229 285.922C44.2332 285.934 44.2474 285.942 44.2629 285.944C44.2722 285.946 44.2819 285.946 44.2913 285.944C44.3006 285.941 44.3093 285.937 44.3167 285.931C44.3241 285.924 44.3301 285.916 44.3341 285.907C44.3381 285.898 44.34 285.888 44.3398 285.878C44.7382 282.336 44.9758 256.176 45.2134 252.64C45.451 249.105 45.486 245.555 45.7096 242.019C46.1857 234.953 47.3376 227.954 49.1483 221.126H49.1204Z" fill="#263238"/>
<path d="M60.3936 228.583C60.3798 228.571 60.3625 228.564 60.3447 228.564C60.3268 228.564 60.3095 228.571 60.2958 228.583C57.4793 230.473 54.9414 232.779 52.7614 235.428C51.6633 236.759 50.6766 238.185 49.812 239.691L49.2039 240.884L48.7356 242.121C48.572 242.529 48.432 242.947 48.3163 243.372C48.1975 243.794 48.0577 244.216 47.9528 244.638C47.1072 248.035 46.555 274.13 46.3943 277.607C46.224 281.089 46.3479 284.579 46.7647 288.039C46.7686 288.054 46.7766 288.067 46.7878 288.078C46.799 288.088 46.8128 288.095 46.8276 288.097C46.8369 288.099 46.8466 288.099 46.856 288.097C46.8653 288.095 46.874 288.09 46.8814 288.084C46.8888 288.077 46.8948 288.069 46.8988 288.06C46.9028 288.051 46.9047 288.041 46.9045 288.031L47.7641 277.709C48.1066 274.297 48.3163 248.246 49.0152 244.914C49.1061 244.5 49.2249 244.092 49.3227 243.678C49.4179 243.266 49.5346 242.861 49.6722 242.463L50.0706 241.27L50.5948 240.142C51.3756 238.637 52.2781 237.203 53.2926 235.857C55.304 233.12 57.6892 230.703 60.3727 228.685C60.3814 228.68 60.3891 228.674 60.3951 228.666C60.4011 228.658 60.4053 228.649 60.4074 228.639C60.4094 228.629 60.4092 228.619 60.4068 228.609C60.4044 228.599 60.3999 228.59 60.3936 228.583Z" fill="#263238"/>
<path d="M54.9355 241.83C53.4686 242.942 52.2914 244.417 51.5108 246.122C50.6829 247.792 50.0382 249.554 49.5888 251.374C49.456 251.825 49.3442 252.277 49.2533 252.735L48.9388 254.11C48.785 255.034 48.6592 278.582 48.6103 279.52C48.5614 280.459 48.5684 281.39 48.6103 282.321C48.6761 283.256 48.7952 284.187 48.9667 285.107C48.9667 285.107 48.9667 285.165 49.0227 285.165C49.0314 285.167 49.0406 285.168 49.0494 285.166C49.0582 285.164 49.0666 285.16 49.0739 285.155C49.0812 285.149 49.0872 285.142 49.0916 285.134C49.0961 285.126 49.0988 285.117 49.0995 285.107C49.308 284.203 49.4667 283.287 49.5748 282.365C49.7146 281.455 49.8544 280.553 49.9592 279.651C50.064 278.749 50.1968 277.854 50.2667 276.945C50.3366 276.036 50.4485 252.517 50.6372 251.636C50.9384 249.848 51.4331 248.1 52.1119 246.428C52.7141 244.72 53.6989 243.186 54.9844 241.954C54.9941 241.94 54.9993 241.923 54.9993 241.906C54.9993 241.889 54.9941 241.873 54.9844 241.859C54.9787 241.851 54.9713 241.844 54.9629 241.839C54.9545 241.834 54.9452 241.831 54.9355 241.83Z" fill="#263238"/>
<path d="M39.1259 252.167C38.7554 247.584 38.0286 243.052 37.3436 238.513C36.6587 233.973 35.8969 229.463 35.1001 224.946C34.3033 220.428 33.4297 215.947 32.4791 211.466C32.4742 211.447 32.4631 211.431 32.4477 211.42C32.4322 211.409 32.4136 211.405 32.3953 211.407C32.378 211.411 32.3626 211.421 32.3522 211.436C32.3419 211.451 32.3373 211.469 32.3394 211.487C33.0942 216.005 33.7791 220.537 34.4361 225.069C35.0931 229.601 35.7151 234.133 36.2673 238.68C36.8194 243.227 37.2248 247.781 37.77 252.32L39.3845 288.577C39.3845 288.595 39.3911 288.611 39.4029 288.623C39.4147 288.636 39.4307 288.643 39.4474 288.643C39.4566 288.643 39.4656 288.641 39.4741 288.637C39.4826 288.633 39.4903 288.628 39.4968 288.621C39.5033 288.615 39.5084 288.607 39.5119 288.598C39.5155 288.589 39.5173 288.579 39.5173 288.57C39.5732 287.421 39.5732 286.271 39.6011 285.122C39.6291 283.972 39.5522 282.823 39.5312 281.674C39.4823 279.375 39.2936 254.459 39.1259 252.167Z" fill="#263238"/>
<path d="M36.4837 252.101C36.2531 250.283 35.9316 248.464 35.5961 246.682L34.981 244.012C34.7784 243.117 34.5827 242.222 34.331 241.342C33.456 237.789 32.3324 234.307 30.9692 230.925L30.4381 229.666L29.858 228.43C29.4805 227.6 29.0332 226.807 28.5999 226.007C27.7353 224.411 26.668 222.942 25.4268 221.642C25.413 221.63 25.3957 221.624 25.3779 221.624C25.36 221.624 25.3427 221.63 25.329 221.642C25.3228 221.648 25.318 221.656 25.3146 221.664C25.3113 221.672 25.3096 221.681 25.3096 221.69C25.3096 221.698 25.3113 221.707 25.3146 221.715C25.318 221.723 25.3228 221.731 25.329 221.737C26.4867 223.091 27.4646 224.601 28.2365 226.225C28.6209 227.04 29.0263 227.84 29.3478 228.677L29.865 229.928L30.3262 231.201C31.5431 234.599 32.5241 238.082 33.2617 241.626C33.6601 243.386 33.9257 245.183 34.2542 246.958L34.6665 249.643C34.8133 250.537 34.995 251.425 35.1208 252.32C35.3934 254.116 35.7079 278.508 36.0085 280.313C36.309 282.117 36.5955 283.906 36.959 285.703C36.9629 285.718 36.9709 285.732 36.9821 285.742C36.9933 285.752 37.0071 285.759 37.0219 285.761C37.0404 285.761 37.0582 285.754 37.0713 285.74C37.0844 285.726 37.0918 285.708 37.0918 285.689C37.0918 283.855 37.0918 282.051 36.973 280.196C36.8541 278.341 36.6654 253.92 36.4837 252.101Z" fill="#263238"/>
<path d="M32.8422 252.335C32.0245 249.935 31.0809 247.578 30.0465 245.272C29.009 242.971 27.8421 240.736 26.5519 238.579C26.5377 238.568 26.5206 238.563 26.503 238.562C26.4855 238.563 26.4684 238.568 26.4541 238.579C26.4427 238.593 26.4365 238.611 26.4365 238.63C26.4365 238.648 26.4427 238.666 26.4541 238.681C27.5829 240.915 28.5818 243.218 29.4455 245.577C30.3401 247.92 31.1438 250.298 31.8218 252.714C32.4998 255.129 33.003 280.212 33.618 282.634C34.2331 285.057 34.7922 287.501 35.5051 289.953C35.5103 289.968 35.5196 289.982 35.532 289.992C35.5443 290.003 35.5593 290.009 35.575 290.011C35.5925 290.008 35.6088 289.999 35.6213 289.986C35.6339 289.973 35.6421 289.956 35.6449 289.938C35.6681 287.378 35.4338 284.823 34.946 282.314C34.5056 279.768 33.653 254.772 32.8422 252.335Z" fill="#263238"/>
<path d="M32.6883 282.961C32.2427 281.462 31.5906 280.039 30.7523 278.735C29.9626 277.403 29.04 253.528 27.9567 252.466C27.3969 251.944 26.796 251.472 26.1604 251.054C25.5319 250.633 24.8463 250.312 24.1266 250.101C24.1107 250.097 24.094 250.099 24.0789 250.105C24.0639 250.112 24.0512 250.123 24.0427 250.138C24.0356 250.155 24.0352 250.175 24.0418 250.192C24.0483 250.21 24.0612 250.224 24.0777 250.232C25.3741 250.882 26.5226 251.812 27.4465 252.96C28.404 254.066 29.1658 277.963 29.8018 279.287C30.4378 280.611 30.8152 282.059 31.3953 283.412C31.6539 284.14 31.9056 284.809 32.2061 285.5C32.4525 286.226 32.7467 286.933 33.0867 287.617C33.0936 287.628 33.1029 287.637 33.1138 287.643C33.1248 287.65 33.1371 287.653 33.1496 287.653C33.1585 287.654 33.1674 287.653 33.1759 287.651C33.1843 287.648 33.1921 287.643 33.1987 287.637C33.2053 287.631 33.2106 287.623 33.2142 287.615C33.2178 287.606 33.2196 287.597 33.2195 287.588C33.2476 286.806 33.2195 286.023 33.1357 285.245C33.0238 284.477 32.8746 283.714 32.6883 282.961Z" fill="#263238"/>
<path d="M32.9607 218.021C30.7634 217.382 28.7754 216.132 27.2111 214.404C25.6468 212.675 24.5656 210.535 24.0844 208.214C22.421 200.125 27.7817 203.588 22.9731 190.886C18.1645 178.184 19.2758 175.296 20.9393 171.637C22.6027 167.978 23.5322 169.135 25.007 173.943C26.4817 178.752 31.8564 186.267 33.8902 200.321C35.9241 214.376 32.9607 218.021 32.9607 218.021Z" fill="#308772"/>
<path d="M47.2054 204.351C47.2054 204.351 42.3969 202.62 42.2082 193.192C42.0195 183.764 45.7028 185.684 46.2829 173.936C46.863 162.187 47.5759 153.916 49.6097 153.727C51.6436 153.537 57.0043 159.474 58.8564 172.568C60.7086 185.662 56.4522 194.319 52.7549 198.175C49.0576 202.03 47.2054 204.351 47.2054 204.351Z" fill="#308772"/>
<path d="M30.3754 229.376C30.3754 229.376 29.2642 222.451 27.0486 219.192C24.833 215.932 20.0175 213.03 16.8723 206.679C13.7272 200.328 10.2186 197.222 10.4003 206.294C10.582 215.365 14.468 219.963 19.2766 223.025C24.0852 226.088 30.3754 229.376 30.3754 229.376Z" fill="#308772"/>
<path d="M28.3413 241.314C28.3413 241.314 23.9031 232.461 17.4311 225.913C10.9591 219.366 5.77317 216.093 7.64627 219.366C9.51937 222.64 11.714 222.451 14.8591 228.227C18.0043 234.003 17.0817 238.237 21.5198 241.503C25.958 244.769 28.3413 241.314 28.3413 241.314Z" fill="#308772"/>
<path d="M27.7825 252.669C27.6008 252.095 27.4121 247.861 21.1288 244.391C14.8455 240.921 8.9187 242.274 9.66654 244.005C10.4144 245.737 14.2934 248.632 18.1724 250.363C22.0514 252.095 27.7825 252.669 27.7825 252.669Z" fill="#308772"/>
<path d="M46.8344 229.762C46.8344 229.762 44.0387 226.125 45.5414 218.406C47.0441 210.688 50.35 212.63 54.0472 208.585C57.7445 204.541 57.0037 203.966 60.7079 199.732C64.4122 195.498 67.6971 193.185 69.2138 194.923C70.7304 196.662 68.4729 202.045 66.2504 205.108C64.0278 208.171 60.5192 209.727 58.8558 213.583C57.1924 217.439 57.9332 223.607 53.6978 226.488C49.4623 229.369 46.8344 229.762 46.8344 229.762Z" fill="#308772"/>
<path d="M56.0811 231.878C56.0811 231.878 62.7418 223.985 67.5503 218.216C72.3589 212.447 74.204 208.032 74.3927 211.858C74.5814 215.685 76.0562 218.791 72.1702 223.796C68.2842 228.801 56.0811 231.878 56.0811 231.878Z" fill="#308772"/>
<path d="M52.5656 244.587C52.5656 244.587 52.3839 241.502 62.9236 234.402C73.4633 227.302 77.9084 225.935 76.7972 228.823C75.6859 231.711 71.066 234.599 66.0688 239.793C61.0715 244.987 52.5656 244.587 52.5656 244.587Z" fill="#308772"/>
<path d="M33.4299 217.197C33.4299 217.197 30.9557 203.376 28.3697 193.569C25.7837 183.763 24.1133 177.791 24.1133 177.791" stroke="#ABABAB" stroke-linecap="round" stroke-linejoin="round"/>
<path d="M46.7783 204.497C46.7783 204.497 51.2724 189.533 52.7541 180.49C54.2358 171.448 52.5654 164.704 51.8245 160.66" stroke="#ABABAB" stroke-linecap="round" stroke-linejoin="round"/>
<path d="M29.7877 229.092C27.7906 225.523 25.5013 222.14 22.9453 218.98C18.8776 213.975 15.7325 211.284 13.8594 206.468" stroke="#ABABAB" stroke-linecap="round" stroke-linejoin="round"/>
<path d="M46.835 229.762C46.835 229.762 48.3167 220.523 51.8252 215.714C55.3338 210.906 62.3719 203.391 65.1466 198.575" stroke="#ABABAB" stroke-linecap="round" stroke-linejoin="round"/>
<path d="M27.3489 252.458C27.3489 252.458 21.1286 248.246 16.6904 245.911" stroke="#ABABAB" stroke-linecap="round" stroke-linejoin="round"/>
<path d="M44.4864 317.639H36.344C35.6391 317.639 34.95 317.422 34.3631 317.016C33.7762 316.609 33.3177 316.032 33.0451 315.355C30.3822 308.72 27.5586 276.988 27.5586 276.988H53.2648C53.2648 276.988 50.4692 308.72 47.7853 315.355C47.512 316.031 47.0533 316.608 46.4666 317.014C45.8798 317.421 45.1911 317.638 44.4864 317.639Z" fill="#263238"/>
<path d="M42.5151 232.853C42.5151 232.853 37.5108 234.228 34.8689 231.762C32.227 229.296 28.2851 228.743 27.4883 232.307C26.6915 235.872 27.7539 239.444 30.1302 244.674C32.5065 249.905 36.1269 246.26 36.1898 244.129C36.2527 241.997 38.7199 240.309 41.7812 240.986C44.8425 241.662 50.1612 233.951 42.5151 232.853Z" fill="#308772"/>
<path d="M51.2166 246.849C51.2166 246.849 53.4951 249.861 47.4774 248.079C41.4597 246.296 38.8737 244.842 38.3215 248.588C37.7694 252.334 42.515 253.157 45.6811 253.979C48.8473 254.801 51.4752 260.569 53.5859 264.163C55.6967 267.757 59.8762 263.61 57.5418 255.106C55.2074 246.602 55.5988 242.877 51.2166 246.849Z" fill="#308772"/>
<path opacity="0.3" d="M390.2 6.93018H121.479V164.558H390.2V6.93018Z" stroke="black" stroke-linejoin="round"/>
<path opacity="0.3" d="M390.2 149.899H121.479V164.565H390.2V149.899Z" stroke="black" stroke-linejoin="round"/>
<g opacity="0.3">
<path d="M190.393 33.4248H147.633V62.8H190.393V33.4248Z" stroke="black" stroke-linejoin="round"/>
<path d="M157.034 88.1812H141.161V105.953H157.034V88.1812Z" stroke="black" stroke-linejoin="round"/>
<path d="M182.942 88.1812H167.069V105.953H182.942V88.1812Z" stroke="black" stroke-linejoin="round"/>
<path d="M208.858 88.1812H192.985V105.953H208.858V88.1812Z" stroke="black" stroke-linejoin="round"/>
<path d="M333.888 65.3384H318.016V83.1104H333.888V65.3384Z" stroke="black" stroke-linejoin="round"/>
<path d="M190.714 46.8468H236.067V29.4385H325.465V65.7028" stroke="black" stroke-linejoin="round"/>
<path d="M371.455 61.7158H341.01V68.9687H371.455V61.7158Z" stroke="black" stroke-linejoin="round"/>
<path d="M371.455 74.7671H341.01V82.0199H371.455V74.7671Z" stroke="black" stroke-linejoin="round"/>
<path d="M371.455 87.8257H341.01V95.0785H371.455V87.8257Z" stroke="black" stroke-linejoin="round"/>
<path d="M371.455 100.876H341.01V108.129H371.455V100.876Z" stroke="black" stroke-linejoin="round"/>
<path d="M371.455 113.934H341.01V121.187H371.455V113.934Z" stroke="black" stroke-linejoin="round"/>
<path d="M167.069 63.1646V78.7542" stroke="black" stroke-linejoin="round"/>
<path d="M148.933 87.825V78.397H201.1V87.825" stroke="black" stroke-linejoin="round"/>
<path d="M175.171 88.1819V78.7539" stroke="black" stroke-linejoin="round"/>
<path d="M160.751 42.1328H177.273" stroke="black" stroke-linejoin="round"/>
<path d="M160.751 54.0996H177.273" stroke="black" stroke-linejoin="round"/>
<path d="M155.572 47.9307H182.453" stroke="black" stroke-linejoin="round"/>
</g>
<path d="M422.196 263.88H59.2686V317.633H422.196V263.88Z" fill="#7D7D7D" stroke="#263238" stroke-linejoin="round"/>
<path d="M221.061 247.584C221.061 247.584 220.125 253.615 219.964 254.132C219.803 254.648 217.301 260.162 216.987 261.632C216.672 263.101 218.713 263.916 219.964 263.916C221.215 263.916 228.113 264.404 228.896 263.756C229.679 263.109 230.469 260.977 230.294 259.348C230.119 257.718 229.043 247.766 229.043 247.766L221.061 247.584Z" fill="white" stroke="#263238" stroke-linejoin="round"/>
<path d="M262.283 248.566C262.283 248.566 264.163 251.665 265.079 252.48C265.994 253.295 271.662 259.333 273.543 259.98C275.423 260.628 275.108 262.105 274.011 263.247C272.914 264.389 266.959 264.061 263.828 263.734C260.696 263.407 257.09 263.734 256.622 263.552C256.153 263.37 253.176 263.392 251.764 262.57C250.352 261.748 250.981 255.725 250.981 255.725L262.283 248.566Z" fill="white" stroke="#263238" stroke-linejoin="round"/>
<path d="M228.896 141.491C228.896 141.491 225.296 156.498 225.632 166.749C225.967 176.999 223.752 203.457 223.752 204.271C223.752 205.086 222.032 209.815 222.032 214.223C222.032 218.632 221.557 243.482 221.557 243.482C221.557 243.482 219.677 243.809 219.992 245.606C220.306 247.403 220.621 250.007 220.621 250.007C220.621 250.007 223.416 250.167 225.632 250.495C226.989 250.688 228.367 250.633 229.707 250.335C229.707 250.335 231.104 246.253 231.279 244.137C231.454 242.02 230.965 241.299 230.965 238.855C230.965 236.411 244.44 166.108 244.44 166.108L249.458 207.538C249.458 207.538 249.773 228.561 250.716 234.454C251.27 237.82 251.583 241.224 251.653 244.639C251.653 244.639 251.184 249.04 251.031 249.534C250.877 250.029 250.248 250.349 250.555 251.651C250.799 252.999 250.958 254.363 251.031 255.732C252.86 254.557 254.802 253.582 256.825 252.823C259.956 251.68 263.562 249.913 263.562 249.913C263.278 248.787 263.068 247.642 262.933 246.486C262.933 245.671 262.15 245.344 262.15 244.697C262.15 244.049 263.408 214.776 263.877 204.497C264.345 194.218 264.345 158.499 264.345 158.499L260.578 141.491L259.795 138.224L229.546 138.064L228.896 141.491Z" fill="#263238" stroke="#263238" stroke-linejoin="round"/>
<path d="M232.81 141.345C232.81 141.345 241.246 144.007 247.131 143.476C253.016 142.945 255.567 141.745 255.567 141.745L257.083 120.321L258.236 91.1787L258.362 86.392C258.362 86.392 250.569 83.9913 248.263 83.7294C245.956 83.4675 239.065 83.0747 239.065 83.0747L231.377 87.4395L232.81 141.345Z" fill="white" stroke="#263238" stroke-linejoin="round"/>
<path d="M238.415 75.8149L239.079 83.0896C239.381 84.1808 239.853 85.213 240.477 86.145C241.427 87.4253 244.74 89.8914 244.74 89.8914L246.348 95.4056L247.955 89.695C249.17 89.1362 250.193 88.208 250.891 87.0325C251.62 85.5107 252.131 83.8857 252.407 82.2094L252.785 78.6593C252.785 78.6593 248.906 80.1143 245.97 79.3868C243.035 78.6593 238.415 75.8149 238.415 75.8149Z" fill="white" stroke="#263238" stroke-linejoin="round"/>
<path d="M244.761 89.8765L241.756 96.9038L239.967 92.5099" stroke="#263238" stroke-linejoin="round"/>
<path d="M247.977 89.6807L250.325 95.9733L251.988 93.3107" stroke="#263238" stroke-linejoin="round"/>
<path d="M235.605 67.4484C235.605 67.4484 233.809 65.6733 233.271 68.3868C232.733 71.1002 234.892 73.3408 235.521 73.7119C236.061 73.9832 236.635 74.1719 237.227 74.272C237.881 76.2381 238.993 78.005 240.463 79.4152C242.706 81.3794 246.299 83.4381 250.793 81.4739C255.287 79.5098 254.923 73.7119 254.658 69.2234C254.392 64.7349 253.4 56.6964 251.96 53.7065C250.52 50.7166 244.859 49.8727 240.372 50.8985C235.885 51.9242 233.634 56.9728 233.453 59.7808C233.271 62.5889 235.605 67.4484 235.605 67.4484Z" fill="white" stroke="#263238" stroke-linejoin="round"/>
<path d="M235.606 67.4488C235.297 67.1462 234.907 66.9484 234.487 66.8813L235.606 67.4488Z" fill="white" stroke="#263238" stroke-linejoin="round"/>
<path d="M240.463 79.4521C242.706 81.4163 246.299 83.475 250.793 81.5109C255.287 79.5467 254.923 73.7488 254.658 69.2603C254.602 68.4019 254.525 67.4125 254.42 66.3504L254.385 66.2704L253.4 73.5451C253.4 73.5451 253.127 72.8176 250.345 71.0208C247.564 69.2239 244.95 71.0208 243.517 71.952C242.442 72.7149 241.446 73.5926 240.546 74.5708C239.432 73.9056 238.553 72.8856 238.037 71.661C237.421 70.2693 237.024 68.7831 236.863 67.2598C236.863 67.2598 238.659 65.0192 238.121 63.426C237.583 61.8329 237.136 62.4003 236.779 60.5162C236.423 58.632 235.969 56.5878 237.227 55.4675C238.485 54.3472 241.721 54.2527 243.063 55.1838C244.405 56.115 245.67 56.6824 247.2 55.744C248.731 54.8055 249.353 53.7798 250.429 54.0635C251.224 54.3928 251.959 54.8601 252.603 55.4457C252.433 54.8446 252.218 54.2584 251.96 53.6925C250.52 50.6953 244.859 49.8588 240.372 50.8845C235.885 51.9102 233.634 56.9588 233.452 59.7669C233.271 62.5749 235.605 67.4344 235.605 67.4344L237.227 74.258C237.874 76.2424 238.986 78.0276 240.463 79.4521Z" fill="#263238" stroke="#263238" stroke-linejoin="round"/>
<path d="M247.557 62.1162C247.557 62.1162 247.914 68.8526 248.815 70.2566C249.717 71.6606 249.626 72.2207 248.186 71.937C246.747 71.6533 245.391 70.0674 245.391 69.1363" fill="white"/>
<path d="M247.557 62.1162C247.557 62.1162 247.914 68.8526 248.815 70.2566C249.717 71.6606 249.626 72.2207 248.186 71.937C246.747 71.6533 245.391 70.0674 245.391 69.1363" stroke="#263238" stroke-linejoin="round"/>
<path d="M244.146 73.3408C244.146 73.3408 245.943 75.676 249.982 74.3665" stroke="white" stroke-linecap="round" stroke-linejoin="round"/>
<path d="M243.329 65.485C243.434 66.2124 243.238 66.8308 242.881 66.889C242.525 66.9472 242.183 66.4088 242.05 65.6959C241.917 64.983 242.148 64.3501 242.497 64.2919C242.847 64.2337 243.224 64.772 243.329 65.485Z" fill="#263238"/>
<path d="M251.164 64.9024C251.276 65.6299 251.073 66.241 250.716 66.2992C250.36 66.3574 250.018 65.819 249.885 65.1061C249.752 64.3932 249.983 63.7603 250.332 63.7021C250.681 63.6439 251.059 64.175 251.164 64.9024Z" fill="#263238"/>
<path d="M240.554 62.5894C240.554 62.5894 241.525 61.5782 243.853 61.5127" stroke="#263238" stroke-linecap="round" stroke-linejoin="round"/>
<path d="M248.78 61.1704C248.78 61.1704 250.01 59.7591 252.275 61.5778" stroke="#263238" stroke-linecap="round" stroke-linejoin="round"/>
<path d="M254.288 64.4077C254.288 64.4077 255.588 63.7385 255.777 65.9573C255.866 67.3686 255.553 68.7759 254.875 70.002L254.288 64.4077Z" fill="white" stroke="#263238" stroke-linejoin="round"/>
<path d="M212.478 102.004C212.478 102.004 210.962 97.3699 211.081 96.977C211.059 95.6159 210.768 94.2739 210.228 93.0342C209.662 92.0521 209.753 92.3504 208.9 90.8518C208.047 89.3532 206.803 87.5054 206.538 86.7198C206.272 85.9341 205.308 87.8983 205.874 89.084C206.44 90.2698 207.768 92.3358 207.768 92.3358C207.439 92.3825 207.104 92.3134 206.817 92.1394C206.515 91.95 206.2 91.7846 205.874 91.6447L204.266 90.7572C204.266 90.7572 201.806 88.4875 201.422 88.2911C201.037 88.0947 199.437 83.0679 198.584 83.6644C197.731 84.2609 198.682 85.534 198.773 86.5161C199.087 88.3783 199.497 90.2215 200.003 92.0375C200.191 92.5322 202.274 95.3839 203.414 96.9625C204.472 98.2343 205.682 99.3612 207.013 100.316L208.711 106.325L212.478 102.004Z" fill="white" stroke="#263238" stroke-linejoin="round"/>
<path d="M203.49 95.8419C203.49 95.8419 203.553 94.387 203.679 93.5576C203.805 92.7283 205.776 87.5997 206.111 88.2981C206.445 89.101 206.49 90.0024 206.237 90.8369C205.992 91.3389 205.258 93.1794 205.258 93.1794L205.957 95.9728C205.957 95.9728 207.726 96.162 208.515 96.9185C209.103 97.6408 209.539 98.4834 209.794 99.3919" fill="white"/>
<path d="M203.49 95.8419C203.49 95.8419 203.553 94.387 203.679 93.5576C203.805 92.7283 205.776 87.5997 206.111 88.2981C206.445 89.101 206.49 90.0024 206.237 90.8369C205.992 91.3389 205.258 93.1794 205.258 93.1794L205.957 95.9728C205.957 95.9728 207.726 96.162 208.515 96.9185C209.103 97.6408 209.539 98.4834 209.794 99.3919" stroke="#263238" stroke-linejoin="round"/>
<path d="M202.567 94.8313C202.567 94.8313 201.868 93.1144 201.952 92.2924C202.036 91.4703 203.294 86.3999 203.294 86.3999C203.294 86.3999 204.147 85.9562 204.21 86.9019C204.14 88.2729 203.936 89.633 203.602 90.9611C203.554 91.8272 203.575 92.6957 203.665 93.5582" fill="white"/>
<path d="M202.567 94.8313C202.567 94.8313 201.868 93.1144 201.952 92.2924C202.036 91.4704 203.294 86.3999 203.294 86.3999C203.294 86.3999 204.147 85.9562 204.21 86.9019C204.14 88.2729 203.936 89.633 203.602 90.9611C203.554 91.8272 203.575 92.6957 203.665 93.5582" stroke="#263238" stroke-linejoin="round"/>
<path d="M201.911 92.801C201.911 92.801 200.632 91.0914 200.632 90.1966C200.689 88.162 200.85 86.1319 201.114 84.115C201.303 83.5403 201.813 83.6712 201.967 85.1262C202.042 86.5039 201.981 87.8861 201.785 89.2509L202.274 90.7713" fill="white"/>
<path d="M201.911 92.801C201.911 92.801 200.632 91.0914 200.632 90.1966C200.689 88.162 200.85 86.1319 201.114 84.115C201.303 83.5403 201.813 83.6712 201.967 85.1262C202.042 86.5039 201.981 87.8861 201.785 89.2509L202.274 90.7713" stroke="#263238" stroke-linejoin="round"/>
<path d="M238.702 82.1943L239.177 100.716C239.177 100.716 240.785 123.995 241.162 127.217C241.54 130.44 236.906 164.566 236.906 164.566C236.906 164.566 231.601 163.773 226.114 162.492C220.628 161.212 218.426 159.932 218.426 159.932L226.681 125.937C226.681 125.937 218.349 135.394 217.783 135.598C217.217 135.801 216.742 135.598 215.98 134.412C215.218 133.226 206.062 106.725 206.062 106.725L212.5 101.996L218.846 112.733C218.846 112.733 222.627 90.9603 223.039 90.1819C223.452 89.4035 238.702 82.1943 238.702 82.1943Z" fill="#308772" stroke="#263238" stroke-linejoin="round"/>
<path d="M235.291 84.3555C235.291 84.3555 233.194 97.7627 234.634 104.725C236.074 111.686 240.03 124.825 240.03 124.825" stroke="#263238" stroke-linejoin="round"/>
<path d="M226.68 125.937L227.344 122.489L224.975 97.8569" stroke="#263238" stroke-linejoin="round"/>
<path d="M218.824 112.733L220.62 118.546" stroke="#263238" stroke-linejoin="round"/>
<path d="M287.137 103.975C287.137 103.975 289.876 100.003 289.897 99.6106C290.298 98.3155 290.95 97.1197 291.812 96.0969C292.63 95.3258 292.455 95.5804 293.686 94.4237C294.877 93.403 296.017 92.3201 297.103 91.1792C297.6 90.51 297.956 92.6778 297.103 93.6381C296.251 94.5983 294.385 96.1769 294.385 96.1769C294.682 96.3278 295.021 96.3639 295.342 96.2788C295.684 96.1885 296.032 96.1252 296.383 96.0896L298.173 95.7259C298.173 95.7259 301.157 94.3074 301.576 94.2273C301.996 94.1473 304.938 89.8625 305.588 90.6555C306.238 91.4484 304.973 92.4232 304.61 93.3325C303.793 95.0213 302.885 96.6608 301.891 98.243C301.576 98.6576 298.781 100.76 297.257 101.924C295.89 102.821 294.42 103.535 292.882 104.048L289.562 109.279L287.137 103.975Z" fill="white" stroke="#263238" stroke-linejoin="round"/>
<path d="M297.46 100.804C297.46 100.804 297.81 99.3852 297.922 98.5631C298.034 97.7411 297.6 92.2342 297.062 92.7943C296.513 93.4558 296.219 94.3061 296.237 95.1804C296.328 95.7406 296.517 97.7193 296.517 97.7193L295.119 100.185C294.218 99.9949 293.286 100.042 292.407 100.324C291.641 100.834 290.989 101.509 290.492 102.302" fill="white"/>
<path d="M297.46 100.804C297.46 100.804 297.81 99.3852 297.922 98.5631C298.034 97.7411 297.6 92.2342 297.062 92.7943C296.513 93.4558 296.219 94.3061 296.237 95.1804C296.328 95.7406 296.517 97.7193 296.517 97.7193L295.119 100.185C294.218 99.9949 293.286 100.042 292.407 100.324C291.641 100.834 290.989 101.509 290.492 102.302" stroke="#263238" stroke-linejoin="round"/>
<path d="M298.62 100.105C298.62 100.105 299.794 98.6933 299.906 97.864C300.018 97.0347 300.269 91.8187 300.269 91.8187C300.269 91.8187 299.57 91.1349 299.256 92.0297C298.939 93.362 298.754 94.7246 298.704 96.0962C298.507 96.939 298.246 97.7638 297.921 98.5624" fill="white"/>
<path d="M298.62 100.105C298.62 100.105 299.794 98.6933 299.906 97.864C300.018 97.0347 300.269 91.8187 300.269 91.8187C300.269 91.8187 299.57 91.1349 299.256 92.0297C298.939 93.362 298.754 94.7246 298.704 96.0962C298.507 96.939 298.246 97.7638 297.921 98.5624" stroke="#263238" stroke-linejoin="round"/>
<path d="M299.822 98.3662C299.822 98.3662 301.528 97.1149 301.772 96.2638C302.288 94.3006 302.699 92.3091 303.002 90.2986C303.002 89.6948 302.485 89.6657 301.905 91.026C301.454 92.3201 301.128 93.6581 300.934 95.0198L300.039 96.3293" fill="white"/>
<path d="M299.822 98.3662C299.822 98.3662 301.528 97.1149 301.772 96.2638C302.288 94.3006 302.699 92.3091 303.002 90.2986C303.002 89.6948 302.485 89.6657 301.905 91.026C301.454 92.3201 301.128 93.6581 300.934 95.0198L300.039 96.3293" stroke="#263238" stroke-linejoin="round"/>
<path d="M252.429 82.1943C252.68 87.9841 252.617 93.7839 252.24 99.5663C251.604 107.146 249.046 126.446 249.304 126.977C249.563 127.508 253.135 164.078 253.135 164.078C253.135 164.078 260.424 164.347 264.513 163.416C267.006 162.846 269.446 162.045 271.803 161.023C271.803 161.023 262.472 125.282 262.339 124.715C262.206 124.147 263.737 119.521 263.737 119.521C263.737 119.521 272.823 130.302 274.347 130.04C275.87 129.778 291.876 107.823 291.876 107.823L286.892 102.229L275.766 112.188C275.766 112.188 268.609 93.8265 267.84 92.2261C267.03 90.809 266.04 89.5121 264.897 88.3705C264.513 87.985 252.429 82.1943 252.429 82.1943Z" fill="#308772" stroke="#263238" stroke-linejoin="round"/>
<path d="M255.567 84.9224C256.444 89.9624 256.616 95.108 256.077 100.199C255.183 108.718 250.199 125.348 250.199 125.348" stroke="#263238" stroke-linejoin="round"/>
<path d="M263.751 119.521L266.686 100.498" stroke="#263238" stroke-linejoin="round"/>
<path d="M275.765 112.203L275.64 117.528" stroke="#263238" stroke-linejoin="round"/>
<path d="M378.2 154.381C378.2 154.381 372.063 155.836 370.386 158.593C368.708 161.35 366.758 167.883 367.317 170.356C367.877 172.83 370.525 179.646 372.615 181.392C374.705 183.138 378.906 185.604 381.967 185.604C385.028 185.604 390.759 181.392 391.311 179.355C391.863 177.318 393.408 171.513 393.548 168.902C393.688 166.29 394.806 162.078 389.921 158.157C385.035 154.236 383.365 153.203 378.2 154.381Z" fill="white" stroke="#263238" stroke-linejoin="round"/>
<path d="M391.311 179.34C391.87 177.311 393.408 171.498 393.548 168.887C393.653 166.915 394.31 164.034 392.527 161.052C392.367 162.318 391.696 165.62 390.619 167.002C389.361 168.596 383.777 171.644 376.522 170.051C371.301 168.901 369.12 165.424 368.31 163.562C367.506 166.173 366.996 168.923 367.317 170.342C367.876 172.808 370.525 179.631 372.615 181.377C374.705 183.123 378.905 185.589 381.967 185.589C385.028 185.589 390.759 181.377 391.311 179.34Z" fill="white" stroke="#263238" stroke-linejoin="round"/>
<path d="M367.317 170.342C367.317 170.342 365.5 169.615 365.221 171.499C364.941 173.383 366.059 177.319 367.597 178.184C368.047 178.436 368.55 178.567 369.061 178.567C369.572 178.567 370.075 178.436 370.526 178.184L367.317 170.342Z" fill="white" stroke="#263238" stroke-linejoin="round"/>
<path d="M393.547 170.05C393.547 170.05 396.343 167.723 396.057 171.353C395.77 174.983 392.01 177.747 392.01 177.747L393.547 170.05Z" fill="white" stroke="#263238" stroke-linejoin="round"/>
<path d="M395.47 190.238C395.47 190.238 391.563 183.844 391.144 183.407C390.724 182.971 384.448 181.952 380.541 181.952C376.634 181.952 370.218 183.691 370.218 183.691L366.87 190.965C366.87 190.965 382.526 186.753 395.47 190.238Z" fill="#263238" stroke="#263238" stroke-linejoin="round"/>
<path d="M347.643 234.097C347.643 234.097 346.546 240.048 347.245 241.677C347.943 243.307 350.592 244.871 351.99 244.871C353.449 244.75 354.895 244.506 356.317 244.144L356.876 235.719L347.643 234.097Z" stroke="#263238" stroke-linejoin="round"/>
<path d="M413.222 229.594C413.222 229.594 413.781 236.563 413.362 237.727C412.942 238.891 410.566 241.066 408.896 241.503C407.439 241.908 405.937 242.104 404.43 242.085C404.01 241.939 402.612 231.624 402.612 231.624L413.222 229.594Z" stroke="#263238" stroke-linejoin="round"/>
<path d="M377.78 304.531C377.78 304.531 377.5 314.985 378.199 316.003C378.898 317.022 382.246 318.324 385.887 317.888C389.529 317.451 391.052 316.294 391.052 315.567C391.052 314.839 390.913 305.542 390.913 305.542C390.913 305.542 379.597 304.822 377.78 304.531Z" fill="#263238" stroke="#263238" stroke-linejoin="round"/>
<path d="M391.039 315.566C391.039 315.406 391.039 314.839 391.039 314.009C386.237 316.192 380.765 314.977 377.878 314.009C377.875 314.685 377.991 315.356 378.22 315.988C378.919 317.006 382.267 318.309 385.909 317.872C389.55 317.436 391.039 316.294 391.039 315.566Z" fill="white" stroke="#263238" stroke-linejoin="round"/>
<path d="M374.572 266.331C374.572 266.331 377.78 289.712 377.641 292.913C377.532 294.509 377.579 296.113 377.78 297.699C377.78 297.699 376.522 298.427 376.522 299.591C376.522 300.755 377.78 304.53 377.78 304.53C377.78 304.53 377.641 305.112 381.275 305.832C384.909 306.553 389.928 306.269 390.906 305.541C391.884 304.814 391.878 301.475 391.738 299.3C391.598 297.125 389.928 292.622 389.928 290.876C389.928 289.13 392.157 264.883 392.157 264.883C392.157 264.883 379.597 267.349 374.572 266.331Z" fill="#308772" stroke="#263238" stroke-linejoin="round"/>
<path d="M398.572 297.27C398.572 297.27 400.669 304.545 401.221 305.833C401.773 307.12 404.017 308.597 405.128 308.597C406.239 308.597 412.243 306.56 413.082 306.124C413.921 305.687 415.451 303.076 414.752 300.755C414.053 298.434 410.559 291.021 410.559 291.021L398.572 297.27Z" fill="#263238" stroke="#263238" stroke-linejoin="round"/>
<path d="M413.083 306.124C413.852 305.724 415.18 303.491 414.879 301.337C412.952 302.666 410.955 303.88 408.896 304.975C406.734 306.025 404.42 306.696 402.047 306.961C402.884 307.83 403.962 308.405 405.129 308.605C406.247 308.605 412.244 306.561 413.083 306.124Z" fill="white" stroke="#263238" stroke-linejoin="round"/>
<path d="M388.662 273.162C388.662 273.162 394.107 284.489 395.078 286.257C396.05 288.024 396.755 289.312 396.755 289.312C396.276 290.067 396.068 290.974 396.168 291.873C396.448 293.182 398.545 297.249 398.545 297.249C398.545 297.249 401.753 297.976 404.262 297.103C406.771 296.23 409.706 293.757 409.986 293.182C410.231 292.473 410.416 291.743 410.538 291C410.067 289.07 409.462 287.179 408.728 285.34C407.47 282.139 406.079 279.673 405.52 276.916C404.961 274.159 401.893 262.367 401.893 262.367L385.817 266.004L388.662 273.162Z" fill="#308772" stroke="#263238" stroke-linejoin="round"/>
<path d="M353.919 249.781C353.919 249.781 353.22 254.873 353.5 257.187C353.779 259.5 354.199 262.41 361.188 265.189C368.177 267.968 375.166 269.83 380.757 269.401C386.349 268.972 396.665 266.346 398.929 265.189C401.194 264.032 403.018 261.821 404.521 260.308C406.023 258.794 406.45 253.28 406.177 251.098C406.029 249.857 405.748 248.636 405.338 247.46C405.338 247.46 381.827 253.848 353.919 249.781Z" fill="#308772" stroke="#263238" stroke-linejoin="round"/>
<path d="M366.898 190.959C366.898 190.959 360.202 197.353 357.113 199.82C354.024 202.286 350.976 205.341 350.976 206.214C350.976 207.087 342.743 233.37 342.743 233.37C342.743 233.37 345.951 237.582 352.933 238.303H354.932C354.932 238.303 353.954 248.764 353.954 249.782C353.954 250.8 367.073 255.602 382.421 254.278C397.769 252.954 405.024 248.909 405.303 247.454C405.583 245.999 405.024 243.089 405.024 240.907C405.024 238.725 404.605 234.512 404.605 234.512C404.605 234.512 408.511 234.949 411.44 233.785C414.368 232.621 418.66 228.584 418.66 228.584C418.66 228.584 410.273 209.851 409.036 205.639C407.799 201.427 395.47 190.239 395.47 190.239C395.47 190.239 384.056 186.463 366.898 190.959Z" fill="#263238" stroke="#263238" stroke-linejoin="round"/>
<path d="M354.388 214.805L355.485 248.079C355.485 248.079 380.562 253.957 403.913 248.079L405.793 215.292C405.793 215.292 363.634 216.943 354.388 214.805Z" fill="#B2B2B2" stroke="#263238" stroke-linejoin="round"/>
<path d="M355.485 248.08L351.096 318.193" stroke="#263238" stroke-width="3" stroke-linecap="round" stroke-linejoin="round"/>
<path d="M403.78 248.08L408.169 318.193" stroke="#263238" stroke-width="3" stroke-linecap="round" stroke-linejoin="round"/>
<path d="M354.583 260.417C354.583 260.417 368.086 267.844 380.841 267.648C394.121 267.444 404.451 260.293 404.451 260.293L405.15 267.946C405.15 267.946 382.085 277.978 354.373 267.473L354.583 260.417Z" fill="#B2B2B2" stroke="#263238" stroke-linejoin="round"/>
<path d="M306.868 265.881C306.868 265.881 312.648 290.716 313.563 293.357C314.479 295.998 315.534 294.536 316.715 297.766C317.897 300.995 318.162 303.789 319.476 305.557C320.79 307.324 324.208 308.052 325.256 310.7C326.305 313.348 326.969 315.545 322.894 316.432C318.819 317.32 315.143 314.81 313.438 310.991C311.732 307.172 309.363 296.442 309.363 296.442C309.363 296.442 293.337 273.083 291.491 268.674L289.653 264.266L306.868 265.881Z" fill="white" stroke="#263238" stroke-linejoin="round"/>
<path d="M315.01 295.561L315.401 295.619C316.03 296.201 316.486 296.959 316.715 297.802C317.903 301.039 318.162 303.825 319.476 305.593C320.79 307.36 324.207 308.088 325.256 310.736C326.304 313.384 326.968 315.581 322.893 316.468C318.819 317.356 315.142 314.846 313.437 311.027C311.732 307.208 309.362 296.478 309.362 296.478C311.857 292.331 315.01 295.561 315.01 295.561Z" fill="#263238" stroke="#263238" stroke-linejoin="round"/>
<path d="M310.817 265.881C310.817 265.881 305.037 290.716 304.114 293.357C303.192 295.998 302.143 294.536 300.962 297.766C299.781 300.995 299.515 303.789 298.201 305.557C296.887 307.324 293.47 308.052 292.421 310.7C291.373 313.348 290.716 315.545 294.784 316.432C298.851 317.32 302.535 314.81 304.247 310.991C305.959 307.172 308.315 296.442 308.315 296.442C308.315 296.442 324.348 273.083 326.186 268.674L328.024 264.266L310.817 265.881Z" fill="white" stroke="#263238" stroke-linejoin="round"/>
<path d="M302.668 295.561L302.276 295.619C301.647 296.201 301.191 296.959 300.962 297.802C299.781 301.039 299.515 303.825 298.201 305.593C296.887 307.36 293.47 308.088 292.421 310.736C291.373 313.384 290.716 315.581 294.784 316.468C298.851 317.356 302.535 314.846 304.247 311.027C305.959 307.208 308.315 296.478 308.315 296.478C305.82 292.331 302.668 295.561 302.668 295.561Z" fill="#263238" stroke="#263238" stroke-linejoin="round"/>
<path d="M292.82 188.958C292.82 188.958 284.432 192.654 284.279 194.291C284.125 195.928 278.75 217.402 278.373 219.854C277.995 222.306 275.745 228.198 277.45 230.657C279.156 233.116 282.182 234.76 284.153 234.898C284.663 234.978 285.185 234.919 285.667 234.728C286.149 234.537 286.576 234.22 286.907 233.807L285.201 245.839C285.201 245.839 282.573 254.314 283.23 257.733C283.887 261.152 286.124 264.572 298.607 267.445C311.089 270.319 318.316 268.813 322.915 266.623C327.514 264.433 333.028 261.698 333.553 258.279C334.077 254.86 331.98 244.057 331.98 244.057L330.925 232.417C330.925 232.417 337.215 232.279 339.598 229.129C341.981 225.979 341.171 222.844 340.255 220.109C339.34 217.373 336.579 207.393 335.656 203.835C334.734 200.278 334.077 194.123 333.028 192.625C331.98 191.126 321.335 188.66 321.335 188.66C321.335 188.66 307.665 183.357 292.82 188.958Z" fill="white" stroke="#263238" stroke-linejoin="round"/>
<path d="M287.962 206.737L290.848 220.821" stroke="#263238" stroke-linejoin="round"/>
<path d="M331.442 207.691L329.471 220.138" stroke="#263238" stroke-linejoin="round"/>
<path d="M333.545 258.286C333.978 255.463 332.622 247.585 332.147 244.944C316.505 249.512 294.363 246.515 285.319 244.944L285.194 245.824C285.194 245.824 282.566 254.299 283.223 257.718C283.88 261.137 286.116 264.556 298.599 267.43C311.082 270.303 318.308 268.798 322.907 266.608C327.506 264.418 333.021 261.705 333.545 258.286Z" fill="#308772" stroke="#263238" stroke-linejoin="round"/>
<path d="M302.017 150.81C302.017 150.81 297.285 148.896 296.628 155.175C295.971 161.453 298.865 168.996 298.998 170.626C299.131 172.255 290.059 186.354 292.162 190.995C294.266 195.636 298.865 201.798 305.442 202.758C312.019 203.718 317.135 202.482 321.992 197.971C326.85 193.461 327.905 192.501 327.772 190.042C327.64 187.583 322.649 173.085 322.125 169.527C321.601 165.97 324.753 159.132 320.944 152.57C317.135 146.008 309.118 144.503 305.966 146.416C302.814 148.329 302.017 150.81 302.017 150.81Z" fill="#263238" stroke="#263238" stroke-linejoin="round"/>
<path d="M283.09 214.805L284.187 248.079C284.187 248.079 309.264 253.957 332.615 248.079L334.495 215.292C334.495 215.292 292.337 216.943 283.09 214.805Z" fill="#B2B2B2" stroke="#263238" stroke-linejoin="round"/>
<path d="M284.188 248.08L279.806 318.193" stroke="#263238" stroke-width="3" stroke-linecap="round" stroke-linejoin="round"/>
<path d="M332.482 248.08L336.872 318.193" stroke="#263238" stroke-width="3" stroke-linecap="round" stroke-linejoin="round"/>
<path d="M283.286 260.417C283.286 260.417 296.789 267.844 309.544 267.648C322.824 267.444 333.154 260.293 333.154 260.293L333.852 267.946C333.852 267.946 310.788 277.978 283.083 267.473L283.286 260.417Z" fill="#B2B2B2" stroke="#263238" stroke-linejoin="round"/>
<path d="M169.921 168.493L168.873 182.337L189.379 181.609L187.807 169.315L169.921 168.493Z" fill="white" stroke="#263238" stroke-linejoin="round"/>
<path d="M193.482 148.728C192.524 145.731 188.694 145.571 187.415 144.735C186.136 143.898 186.457 141.745 182.942 140.413C179.426 139.082 177.35 139.249 175.589 140.915C174.151 142.398 172.82 143.988 171.605 145.673C169.732 146.648 167.859 147.855 167.125 149.063C165.448 151.82 164.903 158.345 165.462 160.812C166.021 163.278 168.67 170.109 170.767 171.847C172.863 173.586 177.057 176.059 180.111 176.059C183.166 176.059 188.904 171.847 189.463 169.818C190.022 167.788 191.56 161.975 191.692 159.357C191.913 158.221 192.245 157.111 192.685 156.047C192.971 155.21 194.404 151.718 193.482 148.728Z" fill="#263238" stroke="#263238" stroke-linejoin="round"/>
<path d="M165.428 160.811C165.428 160.811 163.618 160.084 163.331 161.975C163.045 163.867 164.163 167.795 165.7 168.653C166.15 168.906 166.654 169.038 167.165 169.038C167.676 169.038 168.179 168.906 168.629 168.653L165.428 160.811Z" fill="white" stroke="#263238" stroke-linejoin="round"/>
<path d="M191.658 160.52C191.658 160.52 194.453 158.2 194.174 161.83C193.894 165.46 190.127 168.202 190.127 168.202L191.658 160.52Z" fill="white" stroke="#263238" stroke-linejoin="round"/>
<path d="M196.222 186.95C196.222 186.95 191.602 179.508 191.106 179.006C190.61 178.504 183.187 177.311 178.567 177.311C173.948 177.311 166.364 179.341 166.364 179.341L162.401 187.794C162.401 187.794 180.902 182.891 196.222 186.95Z" fill="#308772" stroke="#263238" stroke-linejoin="round"/>
<path d="M145.753 234.097C145.753 234.097 144.641 240.048 145.333 241.648C146.025 243.249 148.688 244.842 150.079 244.842C151.538 244.721 152.984 244.478 154.405 244.114L154.964 235.69L145.753 234.097Z" fill="white" stroke="#263238" stroke-linejoin="round"/>
<path d="M211.332 229.593C211.332 229.593 211.891 236.562 211.472 237.726C211.053 238.89 208.676 241.065 207.006 241.502C205.55 241.908 204.047 242.104 202.54 242.084C202.12 241.938 200.729 231.623 200.729 231.623L211.332 229.593Z" fill="white" stroke="#263238" stroke-linejoin="round"/>
<path d="M153.162 306.895L148.619 310.896C148.619 310.896 145.124 311.623 145.991 314.351C146.396 315.61 152.463 319.814 155.077 320.36C157.691 320.906 162.422 320.36 163.645 318.541C164.868 316.723 163.995 308.168 163.995 308.168L153.162 306.895Z" fill="white" stroke="#263238" stroke-linejoin="round"/>
<path d="M163.652 318.541C163.864 318.173 164.004 317.765 164.064 317.341C161.793 318.032 158.012 318.687 155.433 318.177C152.854 317.668 148.444 314.365 146.116 312.518C145.968 312.795 145.881 313.103 145.859 313.42C145.837 313.736 145.882 314.054 145.99 314.351C146.396 315.609 152.462 319.814 155.076 320.36C157.69 320.905 162.429 320.36 163.652 318.541Z" fill="white" stroke="#263238" stroke-linejoin="round"/>
<path d="M156.831 248.668C156.831 248.668 151.065 249.214 149.318 254.488C147.571 259.762 152.288 301.773 152.288 301.773C152.288 301.773 151.415 304.501 151.589 305.047C151.764 305.592 152.114 308.502 152.114 308.502C152.114 308.502 152.987 310.139 156.831 310.139C159.339 310.062 161.794 309.377 164.002 308.138C164.002 308.138 163.653 302.864 163.653 300.311C163.653 297.758 163.478 292.127 163.478 292.127L166.448 259.922C166.448 259.922 169.069 250.305 156.831 248.668Z" fill="#263238" stroke="#263238" stroke-linejoin="round"/>
<path d="M202.205 306.895L206.755 310.896C206.755 310.896 210.249 311.623 209.376 314.351C208.97 315.61 202.904 319.814 200.29 320.36C197.676 320.906 192.951 320.36 191.721 318.541C190.491 316.723 191.372 308.168 191.372 308.168L202.205 306.895Z" fill="white" stroke="#263238" stroke-linejoin="round"/>
<path d="M191.714 318.541C191.508 318.17 191.368 317.763 191.302 317.341C193.573 318.032 197.354 318.687 199.933 318.177C202.512 317.668 206.923 314.365 209.25 312.518C209.401 312.794 209.491 313.102 209.513 313.419C209.534 313.737 209.488 314.055 209.376 314.351C208.97 315.609 202.904 319.814 200.29 320.36C197.676 320.905 192.944 320.36 191.714 318.541Z" fill="white" stroke="#263238" stroke-linejoin="round"/>
<path d="M198.535 248.668C198.535 248.668 204.301 249.214 206.055 254.488C207.809 259.762 203.078 301.773 203.078 301.773C203.078 301.773 203.951 304.501 203.777 305.047C203.602 305.592 203.252 308.502 203.252 308.502C203.252 308.502 202.379 310.139 198.535 310.139C196.037 310.068 193.589 309.393 191.385 308.168C191.385 308.168 191.734 302.893 191.734 300.34C191.734 297.787 191.916 292.156 191.916 292.156L188.938 259.951C188.938 259.951 186.297 250.305 198.535 248.668Z" fill="#263238" stroke="#263238" stroke-linejoin="round"/>
<path d="M152.036 249.781C152.036 249.781 151.337 254.873 151.617 257.187C151.896 259.5 152.316 262.41 159.305 265.189C166.294 267.968 173.283 269.83 178.84 269.401C184.396 268.972 194.74 266.346 197.012 265.189C199.283 264.032 201.1 261.821 202.603 260.308C204.106 258.794 204.539 253.28 204.259 251.098C204.111 249.857 203.83 248.636 203.421 247.46C203.421 247.46 179.937 253.848 152.036 249.781Z" fill="#263238" stroke="#263238" stroke-linejoin="round"/>
<path d="M165.008 186.317C165.008 186.317 158.313 189.146 155.223 191.613C152.134 194.079 149.08 197.134 149.08 198.007C149.08 198.88 140.854 233.369 140.854 233.369C140.854 233.369 144.062 237.581 151.037 238.301H152.987C152.987 238.301 152.015 248.763 152.015 249.781C152.015 250.799 165.127 255.601 180.475 254.277C195.824 252.953 203.078 248.908 203.358 247.453C203.637 245.998 203.078 243.088 203.078 240.906C203.078 238.723 202.659 234.511 202.659 234.511C202.659 234.511 206.566 234.948 209.501 233.784C212.437 232.62 216.777 228.583 216.777 228.583C216.777 228.583 208.39 201.666 207.146 197.432C205.902 193.198 193.615 185.596 193.615 185.596C193.615 185.596 182.174 181.814 165.008 186.317Z" fill="#308772" stroke="#263238" stroke-linejoin="round"/>
<path d="M152.595 204.358L155.964 218.995" stroke="#263238" stroke-linejoin="round"/>
<path d="M202.799 210.126L200.674 218.994" stroke="#263238" stroke-linejoin="round"/>
<path d="M204.043 204.947L203.428 207.515" stroke="#263238" stroke-linejoin="round"/>
<path d="M152.882 214.804L153.979 248.078C153.979 248.078 179.049 253.956 202.407 248.078L204.287 215.291C204.287 215.291 162.129 216.942 152.882 214.804Z" fill="#B2B2B2" stroke="#263238" stroke-linejoin="round"/>
<path d="M153.979 248.078L149.59 318.191" stroke="#263238" stroke-width="3" stroke-linecap="round" stroke-linejoin="round"/>
<path d="M202.268 248.078L206.657 318.191" stroke="#263238" stroke-width="3" stroke-linecap="round" stroke-linejoin="round"/>
<path d="M153.071 260.417C153.071 260.417 166.574 267.866 179.329 267.648C192.609 267.444 202.939 260.293 202.939 260.293L203.638 267.946C203.638 267.946 180.573 277.978 152.868 267.473L153.071 260.417Z" fill="#B2B2B2" stroke="#263238" stroke-linejoin="round"/>
<path d="M98.0088 312.321C96.611 312.998 93.368 315.958 90.761 316.548C88.154 317.137 82.9401 316.548 82.0735 315.042C81.2977 313.696 84.8691 311.15 86.7143 308.902C86.9214 308.648 87.1129 308.381 87.2874 308.102C88.7342 305.687 89.6008 300.863 89.6008 300.863L84.1003 260.453L98.0088 262.562L97.4287 298.15C97.4287 298.15 99.9099 302.748 100.616 306.29C101.266 309.571 100.888 310.968 98.0088 312.321Z" fill="white" stroke="#263238" stroke-linejoin="round"/>
<path d="M98.0091 312.322C96.6112 312.998 93.3683 315.959 90.7613 316.548C88.1543 317.138 82.9404 316.548 82.0737 315.042C82.0242 314.96 81.9909 314.869 81.9759 314.773C81.7313 313.384 85.0022 311.012 86.7146 308.903L87.4135 309.63C87.4135 309.63 89.5591 306.196 90.279 304.705C90.9989 303.214 91.7118 301.126 93.2844 299.613C94.857 298.1 97.422 298.107 97.422 298.107C97.422 298.107 99.9032 302.705 100.609 306.247C100.712 306.742 100.789 307.242 100.84 307.746C101.063 310.059 100.406 311.201 98.0091 312.322Z" fill="white" stroke="#263238" stroke-linejoin="round"/>
<path d="M98.0088 312.322C96.6109 312.998 93.368 315.959 90.761 316.548C88.154 317.137 82.9401 316.548 82.0734 315.042C82.0239 314.96 81.9907 314.869 81.9756 314.773C83.7769 315.769 85.8294 316.163 87.8535 315.901C91.8583 315.297 92.2916 311.281 97.5894 308.626C98.5766 308.033 99.7084 307.753 100.846 307.819C101.063 310.059 100.406 311.201 98.0088 312.322Z" fill="white" stroke="#263238" stroke-linejoin="round"/>
<path d="M106.319 312.321C107.717 312.998 110.96 315.958 113.567 316.548C116.174 317.137 121.395 316.548 122.262 315.042C123.03 313.696 119.466 311.15 117.621 308.902C117.411 308.65 117.22 308.383 117.048 308.102C115.601 305.687 114.727 300.863 114.727 300.863L120.235 260.453L106.319 262.562L106.899 298.15C106.899 298.15 104.425 302.748 103.712 306.29C103.062 309.571 103.447 310.968 106.319 312.321Z" fill="white" stroke="#263238" stroke-linejoin="round"/>
<path d="M106.319 312.322C107.717 312.998 110.96 315.959 113.567 316.548C116.174 317.138 121.395 316.548 122.261 315.042C122.311 314.96 122.344 314.869 122.359 314.773C122.597 313.384 119.333 311.012 117.62 308.903L116.922 309.63C116.922 309.63 114.776 306.196 114.063 304.705C113.35 303.214 112.623 301.126 111.051 299.613C109.478 298.1 106.913 298.107 106.913 298.107C106.913 298.107 104.439 302.705 103.726 306.247C103.625 306.742 103.55 307.242 103.502 307.746C103.265 310.059 103.929 311.201 106.319 312.322Z" fill="white" stroke="#263238" stroke-linejoin="round"/>
<path d="M106.32 312.321C107.717 312.998 110.96 315.959 113.567 316.548C116.174 317.137 121.395 316.548 122.262 315.042C122.311 314.96 122.345 314.869 122.36 314.773C120.558 315.767 118.506 316.161 116.482 315.901C112.477 315.297 112.037 311.281 106.739 308.626C105.754 308.034 104.625 307.753 103.489 307.818C103.265 310.059 103.929 311.201 106.32 312.321Z" fill="white" stroke="#263238" stroke-linejoin="round"/>
<path d="M87.854 188.957C87.854 188.957 79.4669 192.652 79.3132 194.289C79.1594 195.926 73.7987 217.401 73.4073 219.86C73.0159 222.319 70.7794 228.204 72.4847 230.663C74.1901 233.122 77.2164 234.766 79.1874 234.904C79.6978 234.983 80.2192 234.925 80.7015 234.734C81.1838 234.542 81.6107 234.225 81.9411 233.813L80.2567 245.845C80.2567 245.845 77.6288 254.32 78.2858 257.739C78.9427 261.158 81.1793 264.577 93.662 267.451C106.145 270.324 113.372 268.818 117.97 266.629C122.569 264.439 128.084 261.704 128.608 258.285C129.132 254.866 127.035 244.063 127.035 244.063L125.98 232.423C125.98 232.423 132.27 232.285 134.654 229.135C137.037 225.985 136.226 222.85 135.311 220.114C134.395 217.379 131.634 207.398 130.712 203.841C129.789 200.284 129.132 194.129 128.084 192.631C127.035 191.132 116.391 188.666 116.391 188.666C116.391 188.666 102.699 183.355 87.854 188.957Z" fill="#308772" stroke="#263238" stroke-linejoin="round"/>
<path d="M84.2334 212.768L85.8828 220.821" stroke="#263238" stroke-linejoin="round"/>
<path d="M82.9961 206.737L83.5972 209.676" stroke="#263238" stroke-linejoin="round"/>
<path d="M126.483 207.689L124.512 220.136" stroke="#263238" stroke-linejoin="round"/>
<path d="M128.58 258.285C129.013 255.463 127.657 247.584 127.182 244.943C111.54 249.512 89.3986 246.515 80.3545 244.943L80.2287 245.824C80.2287 245.824 77.6008 254.299 78.2578 257.718C78.9148 261.137 81.1513 264.556 93.634 267.429C106.117 270.303 113.344 268.797 117.942 266.607C122.541 264.418 128.056 261.704 128.58 258.285Z" fill="#263238" stroke="#263238" stroke-linejoin="round"/>
<path d="M90.6703 161.997C90.6703 161.997 89.9714 159.56 88.6854 161.626C87.3994 163.692 88.6854 167.257 89.587 168.385C90.4995 169.301 91.5472 170.06 92.6902 170.632L93.9133 169.134L90.6703 161.997Z" fill="white" stroke="#263238" stroke-linejoin="round"/>
<path d="M115.755 161.997C115.755 161.997 116.454 159.56 117.74 161.626C119.026 163.692 117.74 167.257 116.838 168.385C115.926 169.301 114.878 170.06 113.735 170.632L112.505 169.134L115.755 161.997Z" fill="white" stroke="#263238" stroke-linejoin="round"/>
<path d="M95.6324 175.114L90.9008 198.349C93.1281 200.687 96.0065 202.234 99.127 202.772C105.578 203.71 110.631 202.532 115.412 198.218C114.629 190.885 112.316 173.673 112.316 173.673L114.706 168.348C116.011 165.515 116.634 162.395 116.523 159.255C116.442 156.901 115.791 154.606 114.629 152.584C110.82 146.037 102.803 144.516 99.6512 146.43C96.4991 148.343 95.7093 150.794 95.7093 150.794C95.7093 150.794 90.9846 148.881 90.3277 155.159C89.6707 161.437 90.6701 167.424 92.69 170.611L95.6324 175.114Z" fill="#263238" stroke="#263238" stroke-linejoin="round"/>
<path d="M103.474 150.917C102.891 150.931 102.317 151.071 101.789 151.331C101.262 151.59 100.793 151.963 100.413 152.423C99.7714 153.413 99.5211 154.622 99.7138 155.799C100.61 154.802 101.837 154.198 103.146 154.111C103.703 154.101 104.252 154.253 104.73 154.552C105.208 154.85 105.597 155.282 105.85 155.799C105.85 155.799 107.444 152.423 103.474 150.917Z" fill="white" stroke="#263238" stroke-linejoin="round"/>
<path d="M78.083 214.805L79.1803 248.079C79.1803 248.079 104.258 253.957 127.608 248.079L129.489 215.292C129.489 215.292 87.3297 216.943 78.083 214.805Z" fill="#B2B2B2" stroke="#263238" stroke-linejoin="round"/>
<path d="M79.1802 248.078L74.791 318.191" stroke="#263238" stroke-width="3" stroke-linecap="round" stroke-linejoin="round"/>
<path d="M127.476 248.078L131.865 318.191" stroke="#263238" stroke-width="3" stroke-linecap="round" stroke-linejoin="round"/>
<path d="M78.272 260.417C78.272 260.417 91.7751 267.844 104.53 267.648C117.81 267.444 128.147 260.293 128.147 260.293L128.846 267.946C128.846 267.946 105.781 277.978 78.0693 267.473L78.272 260.417Z" fill="#B2B2B2" stroke="#263238" stroke-linejoin="round"/>
<path d="M285.041 42.1401H266.436C265.205 42.1401 264.025 42.649 263.154 43.5549C262.284 44.4608 261.795 45.6894 261.795 46.9705V59.8904C261.795 61.1715 262.284 62.4001 263.154 63.306C264.025 64.2118 265.205 64.7207 266.436 64.7207H268.826L265.744 71.1297L274.131 64.7207H285.041C286.272 64.7207 287.452 64.2118 288.323 63.306C289.193 62.4001 289.682 61.1715 289.682 59.8904V46.9705C289.682 45.6894 289.193 44.4608 288.323 43.5549C287.452 42.649 286.272 42.1401 285.041 42.1401Z" fill="white" stroke="#263238" stroke-linejoin="round"/>
<path d="M269.811 54.8416C270.56 54.8416 271.167 54.2098 271.167 53.4303C271.167 52.6509 270.56 52.019 269.811 52.019C269.062 52.019 268.455 52.6509 268.455 53.4303C268.455 54.2098 269.062 54.8416 269.811 54.8416Z" fill="#263238" stroke="#263238" stroke-linejoin="round"/>
<path d="M275.724 54.8416C276.473 54.8416 277.08 54.2098 277.08 53.4303C277.08 52.6509 276.473 52.019 275.724 52.019C274.975 52.019 274.368 52.6509 274.368 53.4303C274.368 54.2098 274.975 54.8416 275.724 54.8416Z" fill="#263238" stroke="#263238" stroke-linejoin="round"/>
<path d="M281.644 54.8416C282.393 54.8416 283 54.2098 283 53.4303C283 52.6509 282.393 52.019 281.644 52.019C280.895 52.019 280.288 52.6509 280.288 53.4303C280.288 54.2098 280.895 54.8416 281.644 54.8416Z" fill="#263238" stroke="#263238" stroke-linejoin="round"/>
</svg>
