<svg width="34" height="34" viewBox="0 0 34 34" fill="none" xmlns="http://www.w3.org/2000/svg">
<g clip-path="url(#clip0_77_101)">
<path d="M34.0002 6.18753C32.6969 6.75639 31.2966 7.14085 29.8268 7.3138C31.3272 6.42858 32.4792 5.0268 33.0216 3.35659C31.5954 4.18977 30.0349 4.7768 28.4077 5.09231C27.0822 3.70224 25.1939 2.8335 23.1039 2.8335C19.091 2.8335 15.8375 6.03609 15.8375 9.98608C15.8375 10.5468 15.9018 11.0926 16.0257 11.6162C9.98683 11.3179 4.63283 8.47031 1.04897 4.14281C0.423641 5.19921 0.0653239 6.42804 0.0653239 7.73871C0.0653239 10.2203 1.34821 12.4095 3.29779 13.6923C2.14391 13.6567 1.01542 13.3499 0.00652683 12.7975C0.00611174 12.8275 0.00611174 12.8575 0.00611174 12.8876C0.00611174 16.3531 2.51073 19.2441 5.83464 19.9012C4.76465 20.1877 3.64231 20.2296 2.55334 20.0238C3.47791 22.8655 6.16142 24.9334 9.34089 24.9913C6.85412 26.9096 3.72099 28.0532 0.316838 28.0532C-0.269751 28.0532 -0.848039 28.0193 -1.4165 27.9532C1.79908 29.9827 5.61841 31.1668 9.72176 31.1668C23.087 31.1668 30.3954 20.2676 30.3954 10.8156C30.3954 10.5054 30.3885 10.1969 30.3744 9.89021C31.7969 8.8779 33.0247 7.62406 34.0002 6.18753Z" fill="#3C6562"/>
</g>
<defs>
<clipPath id="clip0_77_101">
<rect width="34" height="34" fill="white"/>
</clipPath>
</defs>
</svg>
