<svg width="450" height="450" viewBox="0 0 450 450" fill="none" xmlns="http://www.w3.org/2000/svg">
<path d="M113.472 188.478L158.931 186.39L150.669 230.787L113.472 188.478Z" fill="#EBEBEB"/>
<path d="M144.975 215.738L128.033 196.467L50.1052 264.977L67.0469 284.248L144.975 215.738Z" fill="#EBEBEB"/>
<path d="M298.89 119.871L344.349 117.783L336.087 162.18L298.89 119.871Z" fill="#EBEBEB"/>
<path d="M330.392 147.128L313.45 127.857L235.522 196.367L252.464 215.637L330.392 147.128Z" fill="#EBEBEB"/>
<path d="M124.848 130.185L154.008 128.844L148.716 157.329L124.848 130.185Z" fill="#F5F5F5"/>
<path d="M145.058 147.672L134.189 135.31L84.1909 179.265L95.0595 191.628L145.058 147.672Z" fill="#F5F5F5"/>
<path d="M373.941 131.742L403.11 130.401L397.809 158.886L373.941 131.742Z" fill="#F5F5F5"/>
<path d="M394.144 149.235L383.275 136.872L333.276 180.828L344.145 193.191L394.144 149.235Z" fill="#F5F5F5"/>
<path d="M307.548 366.228H265.716C264.508 366.228 263.529 367.207 263.529 368.415V379.314C263.529 380.522 264.508 381.501 265.716 381.501H307.548C308.756 381.501 309.735 380.522 309.735 379.314V368.415C309.735 367.207 308.756 366.228 307.548 366.228Z" fill="#EBEBEB"/>
<path d="M318.663 366.3C319.06 366.257 319.443 366.131 319.788 365.931C320.203 365.673 320.52 365.283 320.688 364.824C320.82 364.179 320.857 363.518 320.796 362.862C320.796 361.341 320.796 359.496 320.796 357.363C320.796 356.292 320.796 355.149 320.796 353.934C320.875 353.34 320.778 352.736 320.517 352.197C320.361 351.933 320.147 351.707 319.892 351.537C319.636 351.367 319.345 351.258 319.041 351.216L276.93 351.261C276.47 351.262 276.025 351.425 275.673 351.721C275.321 352.018 275.084 352.428 275.004 352.881C274.941 353.781 275.004 354.888 275.004 355.869C275.004 357.873 275.004 359.847 275.004 361.791V363.24C274.978 363.697 274.999 364.155 275.067 364.608C275.178 365.02 275.42 365.385 275.756 365.648C276.091 365.91 276.504 366.057 276.93 366.066H282.402L301.302 366.111L314.082 366.183L317.547 366.228H318.447H318.753H318.447H317.547L314.082 366.273L301.302 366.345L282.402 366.399H276.921C276.396 366.389 275.889 366.207 275.476 365.883C275.064 365.558 274.768 365.107 274.635 364.599C274.549 364.109 274.518 363.611 274.545 363.114V355.743C274.545 354.726 274.545 353.772 274.545 352.683C274.641 352.119 274.933 351.608 275.369 351.239C275.806 350.87 276.359 350.667 276.93 350.667C293.391 350.667 308.259 350.667 319.095 350.757C319.446 350.81 319.78 350.94 320.073 351.14C320.366 351.339 320.61 351.602 320.787 351.909C320.959 352.204 321.063 352.532 321.093 352.872C321.093 353.214 321.093 353.502 321.093 353.772C321.093 354.987 321.093 356.13 321.093 357.201C321.093 359.334 321.093 361.179 321.093 362.7C321.143 363.373 321.092 364.049 320.94 364.707C320.763 365.184 320.426 365.585 319.986 365.841C319.713 366.006 319.405 366.105 319.086 366.129C318.958 366.214 318.814 366.272 318.663 366.3Z" fill="#E0E0E0"/>
<path d="M84.4379 92.4297H42.6059C41.3981 92.4297 40.4189 93.4088 40.4189 94.6167V105.516C40.4189 106.724 41.3981 107.703 42.6059 107.703H84.4379C85.6458 107.703 86.6249 106.724 86.6249 105.516V94.6167C86.6249 93.4088 85.6458 92.4297 84.4379 92.4297Z" fill="#F5F5F5"/>
<path d="M107.541 92.4298C107.939 92.3934 108.324 92.2672 108.666 92.0609C109.083 91.805 109.401 91.4145 109.566 90.9538C109.699 90.3088 109.735 89.6476 109.674 88.9918C109.674 87.4738 109.674 85.6408 109.674 83.4928C109.674 82.4218 109.674 81.2788 109.674 80.0638C109.753 79.47 109.656 78.8661 109.395 78.3268C109.238 78.0649 109.025 77.841 108.772 77.6714C108.518 77.5017 108.23 77.3906 107.928 77.3459L65.6999 77.3999C65.2396 77.4051 64.7954 77.5706 64.4439 77.868C64.0924 78.1653 63.8555 78.5758 63.7739 79.0288C63.7109 79.9288 63.7739 81.0268 63.7739 82.0168C63.7739 84.0148 63.7739 85.9948 63.7739 87.9298V89.3699C63.748 89.8268 63.7691 90.2852 63.8369 90.7379C63.9475 91.1507 64.1887 91.5167 64.5245 91.7811C64.8603 92.0455 65.2726 92.1941 65.6999 92.2048H71.1719L90.0719 92.2499L102.843 92.3308L106.308 92.3758H107.208C107.31 92.3646 107.412 92.3646 107.514 92.3758C107.412 92.3892 107.309 92.3892 107.208 92.3758H106.308H102.843L90.0719 92.4479L71.1719 92.5018H65.6999C65.1749 92.4916 64.6675 92.3102 64.2549 91.9854C63.8423 91.6605 63.5471 91.2098 63.4139 90.7018C63.3273 90.2119 63.2971 89.7137 63.3239 89.2168V82.0079C63.3239 80.9819 63.3239 80.0278 63.3239 78.9388C63.4209 78.3776 63.712 77.8684 64.1462 77.4999C64.5805 77.1314 65.1304 76.9272 65.6999 76.9229C82.1699 76.9229 97.0289 76.9229 107.865 77.0219C108.215 77.0728 108.549 77.202 108.842 77.3999C109.135 77.5978 109.379 77.8593 109.557 78.1648C109.728 78.4595 109.833 78.7883 109.863 79.1278C109.863 79.4698 109.863 79.7578 109.863 80.0278C109.863 81.2428 109.863 82.3859 109.863 83.4569C109.863 85.5989 109.863 87.4318 109.863 88.9558C109.913 89.6317 109.861 90.3113 109.71 90.9719C109.528 91.446 109.192 91.8453 108.756 92.1058C108.483 92.2724 108.175 92.3712 107.856 92.3939C107.753 92.4184 107.647 92.4304 107.541 92.4298Z" fill="#E0E0E0"/>
<path d="M409.842 393.48H368.01C366.802 393.48 365.823 394.459 365.823 395.667V406.566C365.823 407.774 366.802 408.753 368.01 408.753H409.842C411.05 408.753 412.029 407.774 412.029 406.566V395.667C412.029 394.459 411.05 393.48 409.842 393.48Z" fill="#EBEBEB"/>
<path d="M401.4 294.426C401.799 294.394 402.185 294.267 402.525 294.057C402.94 293.803 403.257 293.416 403.425 292.959C403.554 292.31 403.587 291.646 403.524 290.988C403.524 289.476 403.524 287.631 403.524 285.498C403.524 284.427 403.524 283.275 403.524 282.069C403.605 281.471 403.505 280.863 403.236 280.323C403.082 280.059 402.87 279.834 402.616 279.666C402.362 279.497 402.072 279.389 401.769 279.351L359.658 279.396C359.198 279.395 358.752 279.558 358.399 279.854C358.047 280.15 357.811 280.562 357.732 281.016C357.669 281.916 357.732 283.023 357.732 284.004V291.366C357.706 291.826 357.727 292.287 357.795 292.743C357.906 293.153 358.146 293.517 358.48 293.78C358.814 294.042 359.224 294.19 359.649 294.201H365.121L384.066 294.255L396.837 294.327H400.311H401.211C401.316 294.313 401.421 294.313 401.526 294.327H401.211H400.311L396.837 294.372L384.066 294.453L365.121 294.498H359.64C359.115 294.486 358.609 294.304 358.196 293.979C357.784 293.655 357.489 293.205 357.354 292.698C357.27 292.204 357.243 291.703 357.273 291.204V289.764C357.273 287.82 357.273 285.846 357.273 283.842C357.273 282.825 357.273 281.871 357.273 280.773C357.372 280.21 357.667 279.7 358.105 279.333C358.543 278.966 359.096 278.765 359.667 278.766C376.128 278.766 390.996 278.766 401.823 278.856C402.176 278.906 402.512 279.035 402.807 279.235C403.101 279.435 403.347 279.699 403.524 280.008C403.692 280.3 403.794 280.626 403.821 280.962C403.821 281.304 403.821 281.592 403.821 281.907C403.821 283.113 403.821 284.265 403.821 285.336C403.821 287.469 403.821 289.314 403.821 290.826C403.868 291.502 403.814 292.182 403.659 292.842C403.488 293.32 403.153 293.722 402.714 293.976C402.441 294.141 402.132 294.239 401.814 294.264C401.686 294.341 401.546 294.396 401.4 294.426Z" fill="#E0E0E0"/>
<path d="M118.458 333.522C118.857 333.492 119.244 333.366 119.583 333.153C120.001 332.903 120.32 332.514 120.483 332.055C120.607 331.406 120.64 330.742 120.582 330.084C120.582 328.572 120.582 326.727 120.582 324.594C120.582 323.523 120.582 322.38 120.582 321.165C120.659 320.567 120.559 319.96 120.294 319.419C120.14 319.155 119.928 318.93 119.674 318.762C119.419 318.593 119.13 318.486 118.827 318.447L76.7158 318.492C76.2548 318.49 75.8081 318.651 75.4553 318.948C75.1025 319.245 74.8667 319.657 74.7898 320.112C74.7268 321.012 74.7898 322.119 74.7898 323.1V330.471C74.7549 330.928 74.7761 331.387 74.8528 331.839C74.9607 332.251 75.2002 332.616 75.5349 332.879C75.8696 333.143 76.2811 333.289 76.7068 333.297H82.1788L101.079 333.351L113.85 333.423H117.324H118.224C118.325 333.409 118.428 333.409 118.53 333.423C118.428 333.435 118.325 333.435 118.224 333.423H117.324H113.85L101.079 333.504L82.1788 333.549H76.5808C76.0558 333.539 75.5484 333.357 75.1359 333.032C74.7233 332.708 74.428 332.257 74.2948 331.749C74.2112 331.259 74.1841 330.76 74.2138 330.264V328.815C74.2138 326.871 74.2138 324.9 74.2138 322.893C74.2138 321.876 74.2138 320.922 74.2138 319.824C74.3149 319.262 74.6099 318.754 75.0473 318.387C75.4848 318.02 76.037 317.818 76.6078 317.817C93.0688 317.817 107.937 317.817 118.764 317.907C119.115 317.957 119.45 318.087 119.744 318.286C120.037 318.486 120.281 318.75 120.456 319.059C120.633 319.351 120.737 319.681 120.762 320.022C120.762 320.355 120.762 320.643 120.762 320.922C120.762 322.137 120.762 323.28 120.762 324.351C120.762 326.484 120.762 328.329 120.762 329.841C120.835 330.598 120.78 331.361 120.6 332.1C120.438 332.569 120.12 332.97 119.7 333.234C119.426 333.398 119.118 333.496 118.8 333.522C118.686 333.536 118.571 333.536 118.458 333.522Z" fill="#E0E0E0"/>
<path d="M386.739 96.0119C387.137 95.9736 387.521 95.8476 387.864 95.6429C388.281 95.387 388.599 94.9965 388.764 94.5359C388.892 93.8902 388.928 93.2297 388.872 92.5739C388.872 91.0529 388.872 89.2169 388.827 87.0749C388.827 86.0039 388.827 84.8609 388.827 83.6459C388.908 83.0511 388.807 82.4458 388.539 81.9089C388.377 81.6363 388.153 81.4056 387.886 81.2352C387.619 81.0648 387.315 80.9595 387 80.9279H344.889C344.428 80.9297 343.982 81.0939 343.629 81.3918C343.277 81.6898 343.041 82.1023 342.963 82.5569C342.9 83.4569 342.963 84.5549 342.963 85.5359V92.9069C342.937 93.3638 342.958 93.8222 343.026 94.2749C343.135 94.687 343.374 95.0527 343.709 95.3172C344.043 95.5817 344.454 95.7307 344.88 95.7419H350.352H369.297L382.068 95.8229H385.542H386.442C386.544 95.8117 386.646 95.8117 386.748 95.8229C386.646 95.8363 386.543 95.8363 386.442 95.8229H385.542H382.068L369.297 95.8949L350.352 95.9489H344.871C344.346 95.9371 343.84 95.7553 343.427 95.4306C343.015 95.106 342.719 94.6561 342.585 94.1489C342.506 93.6581 342.478 93.1604 342.504 92.6639V85.5809C342.504 84.5639 342.459 83.6099 342.504 82.5209C342.601 81.9582 342.894 81.4477 343.33 81.079C343.766 80.7104 344.318 80.5071 344.889 80.5049C361.35 80.5049 376.218 80.5049 387.045 80.6039C387.406 80.6457 387.752 80.7706 388.057 80.969C388.361 81.1673 388.616 81.4336 388.8 81.7469C388.971 82.0415 389.076 82.3703 389.106 82.7099C389.106 83.0519 389.106 83.3399 389.106 83.6099C389.106 84.8249 389.106 85.9679 389.106 87.0389C389.106 89.1809 389.106 91.0169 389.106 92.5379C389.153 93.2142 389.098 93.8937 388.944 94.5539C388.768 95.0289 388.434 95.4291 387.999 95.6879C387.726 95.8529 387.417 95.9515 387.099 95.9759C386.981 96.0047 386.86 96.0168 386.739 96.0119Z" fill="#E0E0E0"/>
<path d="M222.651 406.773H180.819C179.611 406.773 178.632 407.752 178.632 408.96V419.859C178.632 421.067 179.611 422.046 180.819 422.046H222.651C223.859 422.046 224.838 421.067 224.838 419.859V408.96C224.838 407.752 223.859 406.773 222.651 406.773Z" fill="#EBEBEB"/>
<path d="M401.346 24.4438H359.514C358.306 24.4438 357.327 25.423 357.327 26.6308V37.5298C357.327 38.7377 358.306 39.7168 359.514 39.7168H401.346C402.554 39.7168 403.533 38.7377 403.533 37.5298V26.6308C403.533 25.423 402.554 24.4438 401.346 24.4438Z" fill="#F5F5F5"/>
<path d="M40.5 435.771H40.734H41.454H44.262L55.143 435.6L95.733 435.465L95.445 435.762C95.445 424.449 95.445 411.606 95.373 397.503V397.143H95.733L159.147 397.071L158.706 397.503C158.706 386.199 158.706 374.31 158.706 362.079V361.62H230.121L229.653 362.088C229.653 348.201 229.653 334.62 229.653 321.453V320.994H230.112L301.572 321.048L301.167 321.453C301.212 296.001 301.239 273.555 301.275 255.024V254.7H301.572L346.464 254.844L358.443 254.916L361.53 254.961H362.313C362.403 254.95 362.493 254.95 362.583 254.961H362.313H361.53H358.443L346.464 255.042L301.572 255.186L301.878 254.88C301.878 273.411 301.941 295.857 301.986 321.309V321.714H301.572L230.112 321.768L230.571 321.309C230.571 334.476 230.571 348.057 230.571 361.944V362.412H218.214H159.147L159.597 361.962C159.597 374.193 159.597 386.082 159.597 397.386V397.818H159.165L95.751 397.755L96.12 397.386C96.12 411.489 96.066 424.332 96.048 435.645V435.942H95.751L55.161 435.807L44.28 435.726H41.472H40.752C40.6716 435.757 40.5861 435.772 40.5 435.771Z" fill="#263238"/>
<path d="M58.2028 390.834C59.256 391.331 60.1976 392.036 60.971 392.907C61.7443 393.778 62.3334 394.796 62.7028 395.901C63.4261 398.111 63.6294 400.458 63.2969 402.759C62.7929 407.214 60.2638 411.705 57.5458 415.26C53.7928 411.993 52.9378 406.26 52.6768 403.362C52.2718 398.745 54.3508 390.15 58.2389 390.834" fill="#308772"/>
<path d="M61.8659 422.604C61.6109 421.332 61.6963 420.016 62.1135 418.788C62.5308 417.56 63.265 416.464 64.2419 415.611C65.2331 414.778 66.3801 414.15 67.6161 413.763C68.8521 413.377 70.1526 413.24 71.4419 413.361C72.0403 413.353 72.6331 413.477 73.1788 413.722C73.7245 413.968 74.2099 414.33 74.6009 414.783C74.8923 415.261 75.051 415.809 75.0605 416.369C75.07 416.929 74.93 417.481 74.6549 417.969C74.0859 418.935 73.2767 419.738 72.3059 420.3C69.0569 422.334 65.5379 423.711 61.8659 422.604Z" fill="#308772"/>
<path d="M57.0601 436.257C57.0745 435.953 57.1198 435.652 57.1951 435.357C57.3121 434.718 57.4651 433.89 57.6451 432.891C58.063 430.137 58.9231 427.469 60.1921 424.989C61.5155 422.515 63.4722 420.437 65.8621 418.968C66.59 418.538 67.3665 418.197 68.1751 417.951C68.393 417.879 68.6155 417.822 68.8411 417.78C68.9184 417.766 68.9977 417.766 69.0751 417.78C67.9985 418.15 66.9614 418.626 65.9791 419.202C63.6713 420.702 61.7799 422.761 60.4801 425.187C59.2331 427.615 58.3535 430.214 57.8701 432.9C57.6451 433.935 57.4561 434.772 57.3121 435.348C57.2568 435.658 57.1724 435.962 57.0601 436.257Z" fill="#263238"/>
<path d="M57.195 397.521C57.23 397.65 57.2481 397.783 57.249 397.917C57.249 398.214 57.249 398.601 57.312 399.069C57.366 400.068 57.429 401.508 57.483 403.29C57.6 406.89 57.69 411.786 57.663 417.231C57.636 422.676 57.51 427.608 57.366 431.172C57.285 432.972 57.222 434.394 57.159 435.393C57.159 435.861 57.096 436.239 57.078 436.536C57.0758 436.672 57.0607 436.808 57.033 436.941C57.0138 436.807 57.0138 436.67 57.033 436.536C57.033 436.239 57.033 435.861 57.033 435.384C57.033 434.349 57.087 432.918 57.132 431.163C57.222 427.563 57.321 422.676 57.339 417.231C57.357 411.786 57.339 406.863 57.249 403.299C57.249 401.544 57.249 400.113 57.186 399.069C57.186 398.601 57.186 398.223 57.186 397.926C57.181 397.791 57.184 397.656 57.195 397.521Z" fill="#263238"/>
<path d="M55.3768 425.313C54.9239 422.617 53.8354 420.069 52.2015 417.877C50.5675 415.686 48.4351 413.916 45.9808 412.713C44.7298 412.119 43.0918 411.723 42.0658 412.659C41.0398 413.595 41.2648 415.26 41.7688 416.556C42.8655 419.241 44.7328 421.542 47.1354 423.168C49.5379 424.794 52.368 425.671 55.2688 425.691" fill="#308772"/>
<path d="M46.584 416.925C46.8609 417.018 47.129 417.135 47.385 417.276C47.6936 417.418 47.994 417.577 48.285 417.753C48.618 417.969 49.023 418.167 49.428 418.473C49.88 418.777 50.3156 419.104 50.733 419.454C51.2202 419.852 51.6859 420.275 52.128 420.723C53.1368 421.752 54.0246 422.894 54.774 424.125C55.506 425.367 56.0919 426.69 56.52 428.067C56.7022 428.658 56.8494 429.259 56.961 429.867C57.0658 430.405 57.1409 430.949 57.186 431.496C57.249 431.991 57.231 432.45 57.249 432.846C57.2737 433.184 57.2737 433.524 57.249 433.863C57.247 434.165 57.2169 434.466 57.159 434.763C57.078 434.763 57.213 433.521 56.988 431.55C56.9341 431.014 56.8469 430.482 56.727 429.957C56.6059 429.349 56.4527 428.748 56.268 428.157C55.8288 426.808 55.2465 425.511 54.531 424.287C53.7897 423.081 52.924 421.955 51.948 420.93C51.489 420.471 51.048 420.03 50.598 419.661C50.148 419.292 49.698 418.959 49.329 418.662C47.7 417.51 46.557 416.988 46.584 416.925Z" fill="#263238"/>
<path d="M264.222 72.7924L272.088 69.0304C274.264 62.3686 278.852 56.7616 284.952 53.3113C291.052 49.861 298.221 48.8171 305.052 50.3848C311.882 51.9524 317.879 56.0182 321.864 61.783C325.849 67.5478 327.533 74.5946 326.586 81.5383C325.639 88.4819 322.129 94.8202 316.745 99.3072C311.362 103.794 304.495 106.105 297.495 105.786C290.494 105.467 283.866 102.541 278.913 97.5834C273.96 92.6255 271.041 85.9944 270.729 78.9934L264.222 72.7924Z" fill="white"/>
<path d="M264.222 72.7922L264.618 73.1972L265.833 74.3852C266.94 75.4652 268.533 77.0402 270.657 79.0742C270.675 79.0913 270.699 79.1008 270.724 79.1008C270.75 79.1008 270.774 79.0913 270.792 79.0742H270.603C270.783 83.7407 272.125 88.2884 274.509 92.3042C275.255 93.5677 276.097 94.7713 277.029 95.9042C278.042 97.0927 279.143 98.2029 280.323 99.2252C282.912 101.473 285.892 103.224 289.116 104.391C292.816 105.724 296.752 106.272 300.676 106.001C304.599 105.73 308.423 104.645 311.904 102.816C315.751 100.787 319.07 97.8871 321.597 94.3472C324.277 90.6618 326.002 86.37 326.619 81.8552L326.844 80.1272L326.898 78.3992V77.4992L326.844 76.5992L326.745 74.8892C326.682 74.3222 326.574 73.7642 326.493 73.1972C326.42 72.6366 326.315 72.0807 326.178 71.5322C325.93 70.4359 325.611 69.3566 325.224 68.3012C323.146 62.4955 319.222 57.5314 314.052 54.1697C308.883 50.8079 302.754 49.234 296.604 49.6892C293.173 49.9456 289.818 50.8271 286.704 52.2902C285.287 52.9573 283.924 53.7337 282.627 54.6122C281.447 55.4672 280.317 56.3898 279.243 57.3752C275.863 60.601 273.347 64.6241 271.926 69.0752V69.0212L266.067 71.8922L264.591 72.6302L264.105 72.8732C264.105 72.8732 264.294 72.8012 264.636 72.6392L266.166 71.9282L272.007 69.2282C272.02 69.2244 272.031 69.2174 272.041 69.208C272.05 69.1986 272.057 69.187 272.061 69.1742C273.518 64.7882 276.041 60.8327 279.405 57.6632C280.474 56.6994 281.598 55.7979 282.771 54.9632C284.056 54.1049 285.404 53.3438 286.803 52.6862C291.898 50.3299 297.583 49.5607 303.121 50.4789C308.658 51.397 313.791 53.9598 317.853 57.8342C320.969 60.7798 323.378 64.3919 324.9 68.4002C325.265 69.4398 325.565 70.5008 325.8 71.5772C325.933 72.12 326.035 72.6699 326.106 73.2242C326.187 73.7732 326.295 74.3222 326.349 74.8802L326.448 76.5722L326.502 77.4182V78.2642L326.448 79.9652L326.232 81.6662C325.623 86.11 323.929 90.3354 321.3 93.9692C318.811 97.4503 315.549 100.306 311.769 102.312C308.341 104.119 304.575 105.195 300.71 105.47C296.844 105.746 292.964 105.216 289.314 103.914C286.131 102.771 283.184 101.053 280.62 98.8472C279.451 97.8408 278.359 96.7487 277.353 95.5802C276.423 94.4794 275.584 93.3056 274.842 92.0702C272.463 88.1004 271.097 83.6064 270.864 78.9842C270.864 78.9716 270.861 78.9591 270.856 78.9476C270.851 78.936 270.844 78.9257 270.835 78.9172C270.825 78.9087 270.814 78.9023 270.802 78.8983C270.79 78.8944 270.778 78.893 270.765 78.8942C270.744 78.8953 270.725 78.9029 270.708 78.9158C270.692 78.9287 270.681 78.9463 270.675 78.9662L270.837 78.9212L265.977 74.3582L264.708 73.1792L264.222 72.7922Z" fill="#263238"/>
<path d="M298.836 95.679C307.987 95.679 315.405 88.2608 315.405 79.11C315.405 69.9592 307.987 62.541 298.836 62.541C289.685 62.541 282.267 69.9592 282.267 79.11C282.267 88.2608 289.685 95.679 298.836 95.679Z" fill="#308772"/>
<path opacity="0.3" d="M298.836 95.679C307.987 95.679 315.405 88.2608 315.405 79.11C315.405 69.9592 307.987 62.541 298.836 62.541C289.685 62.541 282.267 69.9592 282.267 79.11C282.267 88.2608 289.685 95.679 298.836 95.679Z" fill="black"/>
<path d="M305.106 92.6008C313.576 89.1374 317.635 79.4633 314.171 70.9933C310.708 62.5232 301.034 58.4646 292.564 61.9281C284.094 65.3915 280.035 75.0656 283.499 83.5356C286.962 92.0056 296.636 96.0643 305.106 92.6008Z" fill="#308772"/>
<path d="M306.689 85.1314C311.023 80.7978 311.023 73.7716 306.689 69.4379C302.356 65.1043 295.329 65.1042 290.996 69.4379C286.662 73.7715 286.662 80.7978 290.996 85.1314C295.329 89.4651 302.356 89.4651 306.689 85.1314Z" fill="white"/>
<path d="M298.836 82.7105C301.833 82.7105 304.263 80.2807 304.263 77.2835C304.263 74.2862 301.833 71.8564 298.836 71.8564C295.839 71.8564 293.409 74.2862 293.409 77.2835C293.409 80.2807 295.839 82.7105 298.836 82.7105Z" fill="#308772"/>
<path d="M310.383 65.1512L309.933 61.6142L313.533 57.7622L313.794 61.5782L310.383 65.1512Z" fill="#455A64"/>
<path d="M318.105 62.3341L314.46 62.0371L310.797 65.5561L314.46 65.9521L318.105 62.3341Z" fill="#455A64"/>
<path opacity="0.3" d="M299.565 77.2024L312.237 67.5004C311.758 66.8141 311.226 66.167 310.644 65.5654L299.565 76.3384V77.2024Z" fill="black"/>
<path d="M313.938 61.0475L308.781 66.2045L300.6 74.3855L298.719 76.2665C298.645 76.392 298.614 76.5386 298.633 76.6833C298.651 76.828 298.717 76.9625 298.82 77.0656C298.923 77.1687 299.057 77.2346 299.202 77.2529C299.347 77.2711 299.494 77.2407 299.619 77.1665L304.812 72.0005L312.993 63.8195L314.874 61.9385C315.468 61.3445 314.541 60.4265 313.974 61.0385L313.938 61.0475Z" fill="#263238"/>
<path d="M218.826 85.7608L222.3 47.6998C222.84 38.1868 228.834 30.5998 238.32 31.3918L239.22 31.5178C243.453 32.1289 247.301 34.3105 249.999 37.6288C252.697 40.9472 254.048 45.1593 253.782 49.4278C253.26 57.6718 252.585 66.7618 251.901 71.1268C250.416 80.0998 241.2 80.2078 241.2 80.2078C241.2 80.2078 240.579 85.7248 240.3 88.3978L239.157 94.6078L234.513 92.2588L218.826 85.7608Z" fill="#FFBF9D"/>
<path d="M241.2 79.8932C237.022 79.2765 233.108 77.4743 229.923 74.7002C229.923 74.7002 231.777 81.9002 240.921 82.3952L241.2 79.8932Z" fill="#FF9A6C"/>
<path d="M249.723 57.2129C249.676 57.55 249.499 57.8553 249.23 58.0638C248.961 58.2723 248.621 58.3674 248.283 58.3289C248.117 58.3188 247.955 58.2755 247.807 58.2017C247.658 58.1278 247.526 58.025 247.418 57.8991C247.309 57.7733 247.227 57.627 247.177 57.4689C247.126 57.3109 247.107 57.1443 247.122 56.9789C247.167 56.642 247.342 56.3359 247.609 56.1258C247.876 55.9157 248.215 55.8181 248.553 55.8539C248.72 55.8641 248.883 55.9076 249.033 55.9819C249.183 56.0562 249.316 56.1597 249.425 56.2864C249.534 56.4131 249.617 56.5604 249.668 56.7195C249.719 56.8786 249.738 57.0464 249.723 57.2129Z" fill="#263238"/>
<path d="M251.244 52.7938C251.055 52.9378 250.182 52.0738 248.796 51.8938C247.41 51.7138 246.285 52.2448 246.159 52.0468C246.033 51.8488 246.303 51.6868 246.789 51.4258C247.451 51.0928 248.2 50.9763 248.931 51.0928C249.65 51.1812 250.321 51.4965 250.848 51.9928C251.235 52.3978 251.334 52.7218 251.244 52.7938Z" fill="#263238"/>
<path d="M237.6 55.575C237.579 55.744 237.525 55.9073 237.44 56.0554C237.356 56.2034 237.243 56.3335 237.109 56.4379C236.974 56.5424 236.82 56.6194 236.656 56.6643C236.492 56.7093 236.32 56.7214 236.151 56.7C235.985 56.691 235.822 56.6486 235.673 56.5751C235.524 56.5017 235.391 56.3988 235.283 56.2727C235.174 56.1466 235.092 55.9998 235.042 55.8412C234.992 55.6827 234.974 55.5155 234.99 55.35C235.033 55.012 235.207 54.7045 235.475 54.494C235.743 54.2834 236.083 54.1868 236.421 54.225C236.588 54.234 236.751 54.2764 236.901 54.3496C237.052 54.4228 237.186 54.5254 237.295 54.6512C237.405 54.7771 237.489 54.9236 237.541 55.0823C237.594 55.2409 237.614 55.4085 237.6 55.575Z" fill="#263238"/>
<path d="M237.6 51.147C237.411 51.291 236.538 50.427 235.152 50.247C233.766 50.067 232.641 50.598 232.515 50.409C232.389 50.22 232.659 50.04 233.154 49.779C233.814 49.4524 234.559 49.3362 235.287 49.446C236.007 49.5403 236.679 49.8546 237.213 50.346C237.6 50.76 237.663 51.084 237.6 51.147Z" fill="#263238"/>
<path d="M241.02 62.5412C241.785 62.4259 242.561 62.3988 243.333 62.4603C243.693 62.4603 244.044 62.4602 244.134 62.2262C244.215 61.8632 244.187 61.4844 244.053 61.1372C243.837 60.2373 243.621 59.2833 243.387 58.2843C242.487 54.2253 241.893 50.9132 242.055 50.8772C242.217 50.8412 243.081 54.0993 243.981 58.1583C244.197 59.1573 244.404 60.1113 244.593 61.0203C244.764 61.4788 244.764 61.9837 244.593 62.4422C244.523 62.5593 244.428 62.659 244.314 62.7338C244.2 62.8086 244.071 62.8567 243.936 62.8743C243.733 62.8968 243.527 62.8968 243.324 62.8743C242.545 62.8669 241.77 62.7549 241.02 62.5412Z" fill="#263238"/>
<path d="M238.653 46.8629C238.41 47.1959 237.114 46.6289 235.476 46.3499C233.838 46.0709 232.434 46.1339 232.326 45.7469C232.272 45.5669 232.596 45.2879 233.226 45.0809C234.04 44.8362 234.901 44.7899 235.737 44.9459C236.568 45.0842 237.356 45.4105 238.041 45.8999C238.554 46.3319 238.761 46.7099 238.653 46.8629Z" fill="#263238"/>
<path d="M251.892 48.7172C251.568 48.9962 250.47 48.5192 249.111 48.3302C247.752 48.1412 246.564 48.2132 246.348 47.8442C246.249 47.6732 246.474 47.3762 247.014 47.1422C247.757 46.859 248.562 46.7812 249.345 46.9172C250.128 47.0155 250.869 47.3268 251.487 47.8172C251.928 48.2312 252.045 48.6002 251.892 48.7172Z" fill="#263238"/>
<path d="M222.057 54.1442C221.913 54.0542 216.108 51.4442 215.415 57.6182C214.722 63.7922 221.103 63.2432 221.13 63.0722C221.157 62.9012 222.057 54.1442 222.057 54.1442Z" fill="#FFBF9D"/>
<path d="M219.501 60.507C219.501 60.507 219.384 60.57 219.186 60.633C218.917 60.7135 218.627 60.6877 218.376 60.561C218.003 60.2608 217.716 59.8667 217.545 59.4191C217.375 58.9716 217.326 58.4866 217.404 58.014C217.451 57.4811 217.613 56.9649 217.881 56.502C217.961 56.3156 218.084 56.1513 218.241 56.0228C218.398 55.8943 218.583 55.8055 218.781 55.764C218.909 55.7427 219.041 55.7683 219.152 55.8361C219.262 55.9038 219.345 56.0092 219.384 56.133C219.447 56.313 219.384 56.43 219.384 56.448C219.384 56.466 219.528 56.358 219.51 56.097C219.489 55.9399 219.416 55.7944 219.303 55.683C219.228 55.6083 219.138 55.5499 219.039 55.5112C218.94 55.4725 218.834 55.4544 218.727 55.458C218.466 55.4776 218.213 55.5651 217.995 55.7119C217.778 55.8586 217.602 56.0596 217.485 56.295C217.164 56.8022 216.969 57.3795 216.918 57.978C216.819 59.238 217.332 60.48 218.196 60.84C218.358 60.9068 218.532 60.9366 218.707 60.9273C218.881 60.9179 219.051 60.8696 219.204 60.786C219.465 60.651 219.519 60.516 219.501 60.507Z" fill="#FF9A6C"/>
<path d="M267.129 42.174C267.047 41.8119 266.836 41.492 266.535 41.274C265.845 40.8658 265.06 40.6455 264.258 40.635C262.283 40.3726 260.394 39.6648 258.732 38.565C259.381 38.3317 259.988 37.9976 260.532 37.575C261.109 37.1526 261.559 36.5803 261.833 35.9203C262.108 35.2603 262.196 34.5378 262.089 33.831C262.073 33.6991 262.027 33.5726 261.955 33.4606C261.884 33.3485 261.788 33.2537 261.675 33.183C261.279 33.012 260.883 33.363 260.568 33.651C260.154 34.0953 259.629 34.4206 259.046 34.5931C258.464 34.7656 257.846 34.7791 257.256 34.632C256.434 34.4823 255.656 34.1502 254.979 33.66C254.953 33.6287 254.929 33.5956 254.907 33.561L254.07 32.499C252 29.88 250.2 28.044 248.202 27C244.749 25.2759 240.89 24.5261 237.042 24.831C233.784 25.308 230.652 27.531 229.842 30.735C228.24 29.034 225.585 28.746 223.326 29.367H223.272C220.77 29.952 219.114 32.337 218.124 34.713C218.07 34.839 218.025 34.974 217.971 35.1C217.013 36.308 215.778 37.268 214.371 37.899C214.128 38.007 213.84 38.142 213.786 38.403C213.777 38.5362 213.803 38.6694 213.862 38.7893C213.92 38.9093 214.009 39.012 214.119 39.087C214.666 39.5476 215.309 39.8797 216 40.059C215.722 40.6233 215.391 41.1597 215.01 41.661C214.686 42.084 214.308 42.561 214.488 43.101C214.575 43.2909 214.719 43.4492 214.899 43.554C215.08 43.6588 215.288 43.7049 215.496 43.686C215.912 43.6442 216.313 43.5154 216.675 43.308L215.649 45.108C216.506 45.3562 217.41 45.3994 218.286 45.234C218.538 47.583 218.439 51.876 218.853 53.496C220.491 53.712 220.914 53.577 221.715 53.946C222.75 54.423 222.12 56.286 223.587 55.899C224.325 55.71 225.729 53.136 226.053 52.434C228.183 47.7792 229.288 42.721 229.293 37.602C230.415 36.6618 231.708 35.9468 233.1 35.496L232.983 35.577C235.62 34.992 238.59 34.452 240.867 35.91C242.667 37.053 243.513 39.114 244.728 40.824C245.748 42.3708 247.083 43.6839 248.647 44.6767C250.211 45.6696 251.967 46.3196 253.8 46.584C253.845 49.365 253.44 53.856 253.278 56.43L256.05 51.561C256.257 51.282 256.437 50.994 256.617 50.715L256.671 50.625C256.945 50.1492 257.245 49.6894 257.571 49.248C257.847 49.4785 258.191 49.6105 258.55 49.6229C258.909 49.6353 259.262 49.5274 259.552 49.3165C259.843 49.1056 260.054 48.8036 260.154 48.4586C260.253 48.1135 260.234 47.7452 260.1 47.412C259.919 47.0793 259.688 46.7759 259.416 46.512C259.696 46.8483 260.057 47.1075 260.465 47.2651C260.873 47.4226 261.314 47.4732 261.747 47.412C262.178 47.3311 262.571 47.1113 262.865 46.7862C263.159 46.4612 263.339 46.0488 263.376 45.612C263.376 45.3149 263.297 45.0231 263.149 44.7658C263.001 44.5084 262.787 44.2944 262.53 44.145C263.647 44.3619 264.803 44.2429 265.851 43.803C266.553 43.533 267.3 43.011 267.129 42.174Z" fill="#263238"/>
<path d="M232.587 32.0762C232.234 32.2954 231.898 32.539 231.579 32.8052C230.763 33.5937 230.165 34.5795 229.842 35.6672C229.6 36.4075 229.434 37.1704 229.347 37.9442C229.248 38.7812 229.212 39.6902 229.167 40.6442C229.14 41.6449 229.05 42.6429 228.897 43.6322C228.809 44.1568 228.683 44.6742 228.519 45.1802C228.371 45.7237 228.089 46.2217 227.7 46.6292C227.522 46.7878 227.305 46.8977 227.072 46.9482C226.838 46.9986 226.596 46.988 226.368 46.9172C225.933 46.7795 225.554 46.5048 225.288 46.1342C224.874 45.3986 224.663 44.5662 224.676 43.7222L224.865 43.7672C224.514 44.4281 224.068 45.0345 223.542 45.5672C223.038 46.0572 222.364 46.3316 221.661 46.3322C221.342 46.3234 221.032 46.2303 220.761 46.0622C220.506 45.8905 220.308 45.6459 220.194 45.3602C220.091 45.0972 220.056 44.8121 220.095 44.5322C220.136 44.269 220.27 44.0294 220.473 43.8572L220.554 43.9562C219.944 44.5145 219.224 44.9378 218.439 45.1982C218.169 45.2882 217.953 45.3332 217.809 45.3692C217.734 45.381 217.659 45.381 217.584 45.3692L217.8 45.3062C217.935 45.2612 218.151 45.2072 218.412 45.1082C219.174 44.8275 219.872 44.3959 220.464 43.8392L220.554 43.9292C220.383 44.1046 220.271 44.3284 220.232 44.57C220.194 44.8116 220.231 45.0593 220.338 45.2792C220.449 45.5295 220.626 45.7444 220.851 45.9002C221.105 46.049 221.393 46.1296 221.688 46.1342C222.342 46.1225 222.966 45.8618 223.434 45.4052C223.941 44.8871 224.371 44.2991 224.712 43.6592L224.874 43.3892V43.7042C224.867 44.5098 225.068 45.3036 225.459 46.0082C225.697 46.3424 226.039 46.5891 226.431 46.7102C226.623 46.7728 226.829 46.7833 227.026 46.7406C227.224 46.6979 227.407 46.6036 227.556 46.4672C227.919 46.0854 228.179 45.6178 228.312 45.1082C228.476 44.6144 228.602 44.109 228.69 43.5962C228.847 42.6132 228.94 41.6212 228.969 40.6262C229.023 39.7262 229.068 38.7722 229.167 37.9262C229.267 37.1395 229.445 36.3647 229.698 35.6132C230.036 34.5149 230.657 33.5248 231.498 32.7422C231.82 32.4596 232.189 32.2344 232.587 32.0762Z" fill="#455A64"/>
<path d="M259.695 44.0999L259.614 44.1539L259.371 44.2979C259.24 44.3761 259.101 44.4424 258.957 44.4959C258.786 44.5679 258.597 44.6579 258.372 44.7299C257.09 45.1398 255.727 45.2264 254.403 44.9819C252.434 44.6231 250.609 43.7045 249.147 42.3359C247.393 40.6446 245.999 38.6146 245.052 36.3689C244.521 35.1899 244.152 34.0019 243.63 32.8949C243.208 31.8159 242.632 30.8035 241.92 29.8889C241.276 29.0697 240.438 28.4234 239.481 28.0079C239.046 27.8266 238.584 27.7201 238.113 27.6929C237.682 27.6658 237.249 27.6991 236.826 27.7919C236.095 27.9448 235.405 28.2516 234.801 28.6919C234.348 29.0332 233.95 29.4431 233.622 29.9069C233.359 30.316 233.15 30.7578 233.001 31.2209C233.001 31.2209 233.001 31.2209 233.001 31.1219L233.073 30.8519C233.186 30.5045 233.34 30.172 233.532 29.8619C233.852 29.379 234.251 28.9531 234.711 28.6019C235.318 28.1274 236.022 27.7924 236.772 27.6209C237.21 27.5261 237.657 27.4868 238.104 27.5039C238.592 27.5353 239.071 27.6416 239.526 27.8189C240.538 28.2458 241.424 28.9243 242.1 29.7899C242.847 30.7065 243.454 31.7286 243.9 32.8229C244.377 33.9479 244.8 35.1269 245.322 36.2969C246.241 38.5133 247.594 40.5237 249.3 42.2099C250.731 43.5623 252.516 44.48 254.448 44.8559C255.75 45.11 257.093 45.0451 258.363 44.6669C258.817 44.5018 259.262 44.3126 259.695 44.0999Z" fill="#455A64"/>
<path d="M261 40.2212C260.887 40.296 260.766 40.3593 260.64 40.4102C260.312 40.5639 259.972 40.6903 259.623 40.7882C259.105 40.9414 258.575 41.0527 258.039 41.1212C256.72 41.2782 255.382 41.168 254.106 40.7972C253.586 40.6499 253.08 40.4572 252.594 40.2212C252.265 40.0638 251.949 39.8802 251.649 39.6722C251.531 39.6062 251.422 39.5244 251.325 39.4292C251.325 39.4292 251.82 39.7172 252.657 40.0772C253.141 40.2917 253.641 40.4692 254.151 40.6082C254.78 40.7711 255.421 40.8825 256.068 40.9412C256.718 40.9956 257.371 40.9956 258.021 40.9412C258.549 40.8879 259.073 40.7946 259.587 40.6622C260.442 40.4192 261 40.1852 261 40.2212Z" fill="#455A64"/>
<path d="M240.453 66.78C240.399 66.546 238.878 66.969 237.438 65.961C235.998 64.953 235.719 63.261 235.503 63.324C235.287 63.387 235.305 63.774 235.503 64.458C235.736 65.3559 236.278 66.1431 237.033 66.681C237.76 67.1934 238.656 67.4062 239.535 67.275C240.156 67.158 240.489 66.879 240.453 66.78Z" fill="#263238"/>
<path d="M198.306 80.2259C196.466 79.507 194.451 79.3587 192.525 79.8001C190.599 80.2415 188.85 81.2522 187.506 82.7009C182.727 87.8219 165.123 122.049 162.801 128.511C158.994 139.131 167.211 148.212 174.051 148.581C180.891 148.95 207.657 140.346 207.657 140.346L201.825 124.992L184.725 126.351L198 99.7469L198.306 80.2259Z" fill="#455A64"/>
<path d="M227.574 110.358C227.574 110.358 234.162 143.748 237.294 146.448C240.426 149.148 265.194 160.245 265.194 160.245L272.619 148.176L252.9 136.179L252.81 110.826C252.603 103.68 249.741 99.1982 246.465 96.8042L227.574 110.358Z" fill="#455A64"/>
<path d="M241.506 87.5969L237.006 93.3659L234.27 86.2199L218.529 76.0049L213.939 80.4059C213.939 80.4059 196.29 80.7479 195.147 81.6119C192.609 83.5289 187.947 112.113 187.947 112.113L179.001 166.023C178.245 168.183 185.751 169.695 190.098 170.757L230.148 176.49C230.148 176.49 234.918 177.624 236.268 174.69C237.357 172.323 239.634 147.429 241.938 133.83C242.55 130.23 243.099 117.378 243.099 117.378L247.554 97.4969L242.73 93.8969L241.506 87.5969Z" fill="#455A64"/>
<path d="M190.944 114.066C190.77 114.719 190.516 115.347 190.188 115.938C189.657 117.072 188.901 118.638 188.046 120.312C187.191 121.986 186.381 123.534 185.787 124.632C185.506 125.247 185.149 125.824 184.725 126.351C184.912 125.701 185.169 125.074 185.49 124.479C186.012 123.345 186.768 121.779 187.623 120.105C188.478 118.431 189.288 116.892 189.882 115.794C190.172 115.181 190.528 114.602 190.944 114.066Z" fill="#263238"/>
<path d="M233.37 86.4003C232.885 87.0369 232.356 87.6384 231.786 88.2003C230.76 89.2893 229.293 90.8103 227.565 92.5743L227.43 92.7093L227.268 92.5923C226.152 91.7463 224.946 90.7923 223.668 89.7573C220.905 87.4533 218.538 85.2573 216.873 83.5473C216.045 82.7193 215.388 82.0263 214.947 81.5313C214.696 81.2978 214.479 81.0313 214.299 80.7393C214.58 80.9334 214.839 81.1566 215.073 81.4053L217.107 83.3133C218.817 84.9153 221.22 87.1023 223.974 89.3973C225.198 90.4233 226.395 91.3863 227.493 92.2503H227.205C228.96 90.5043 230.472 89.0283 231.552 87.9933C232.114 87.4141 232.722 86.8813 233.37 86.4003Z" fill="#263238"/>
<path d="M245.556 105.426C245.527 107.88 245.344 110.33 245.007 112.761C244.832 115.21 244.495 117.646 243.999 120.051C244.028 117.594 244.211 115.141 244.548 112.707C244.722 110.26 245.059 107.828 245.556 105.426Z" fill="#263238"/>
<path d="M263.565 144.126C263.565 144.126 268.479 135.855 269.514 136.188C270.549 136.521 271.08 138.654 270.459 140.238C269.838 141.822 268.101 148.176 268.101 148.176L263.565 144.126Z" fill="#FFBF9D"/>
<path d="M265.203 288.072L260.325 310.077C260.325 310.077 281.322 320.814 280.818 324.963L237.537 318.663L243.738 284.058L265.203 288.072Z" fill="#455A64"/>
<g opacity="0.6">
<path d="M247.365 305.766C246.926 305.819 246.522 306.032 246.23 306.364C245.938 306.696 245.778 307.124 245.781 307.566C245.818 308.012 246.026 308.427 246.361 308.724C246.697 309.021 247.134 309.177 247.581 309.159C248.044 309.104 248.47 308.879 248.778 308.529C249.085 308.178 249.252 307.726 249.246 307.26C249.161 306.809 248.906 306.409 248.535 306.139C248.163 305.87 247.703 305.753 247.248 305.811" fill="white"/>
</g>
<g opacity="0.6">
<path d="M237.537 318.654L238.167 315.162L279.747 322.722C280.154 323.016 280.481 323.407 280.698 323.86C280.915 324.313 281.015 324.813 280.989 325.314L237.537 318.654Z" fill="white"/>
</g>
<path d="M261.063 309.987C261.018 310.194 259.947 310.095 258.795 310.581C257.643 311.067 256.923 311.85 256.743 311.733C256.563 311.616 257.103 310.455 258.543 309.933C259.983 309.411 261.144 309.807 261.063 309.987Z" fill="#263238"/>
<path d="M265.23 312.687C265.23 312.894 264.267 313.083 263.385 313.839C262.503 314.595 262.134 315.504 261.927 315.45C261.72 315.396 261.801 314.19 262.908 313.272C264.015 312.354 265.257 312.48 265.23 312.687Z" fill="#263238"/>
<path d="M266.796 318.6C266.598 318.6 266.499 317.511 267.246 316.458C267.993 315.405 269.046 315.126 269.127 315.324C269.208 315.522 268.461 316.017 267.858 316.89C267.255 317.763 267.012 318.6 266.796 318.6Z" fill="#263238"/>
<path d="M261.621 304.848C261.495 305.028 260.586 304.56 259.38 304.416C258.174 304.272 257.184 304.488 257.112 304.281C257.04 304.074 258.057 303.498 259.479 303.678C260.901 303.858 261.756 304.704 261.621 304.848Z" fill="#263238"/>
<g opacity="0.3">
<path d="M264.231 292.428L263.367 296.352L242.271 292.266L242.892 288.702L264.231 292.428Z" fill="black"/>
</g>
<path d="M196.38 327.879L193.59 350.244C193.59 350.244 215.505 358.965 215.388 363.15L171.702 360.9L174.6 325.89L196.38 327.879Z" fill="#455A64"/>
<g opacity="0.6">
<path d="M180.288 347.166C179.859 347.258 179.479 347.504 179.219 347.857C178.959 348.21 178.837 348.646 178.875 349.083C178.948 349.516 179.185 349.905 179.537 350.168C179.889 350.431 180.329 350.548 180.765 350.496C181.222 350.4 181.627 350.138 181.901 349.761C182.176 349.383 182.3 348.917 182.25 348.453C182.122 348.011 181.829 347.636 181.432 347.403C181.036 347.17 180.565 347.098 180.117 347.202" fill="white"/>
</g>
<g opacity="0.6">
<path d="M171.702 360.9L171.999 357.372L214.101 360.972C214.535 361.229 214.899 361.589 215.16 362.021C215.421 362.453 215.57 362.943 215.595 363.447L171.702 360.9Z" fill="white"/>
</g>
<path d="M194.31 350.1C194.31 350.307 193.212 350.307 192.105 350.901C190.998 351.495 190.359 352.341 190.179 352.233C189.999 352.125 190.413 350.937 191.763 350.244C193.113 349.551 194.4 349.893 194.31 350.1Z" fill="#263238"/>
<path d="M198.711 352.386C198.711 352.593 197.811 352.872 196.992 353.709C196.173 354.546 195.894 355.509 195.687 355.446C195.48 355.383 195.444 354.204 196.461 353.187C197.478 352.17 198.729 352.179 198.711 352.386Z" fill="#263238"/>
<path d="M200.826 358.083C200.628 358.083 200.421 357.021 201.078 355.905C201.735 354.789 202.761 354.411 202.878 354.6C202.995 354.789 202.284 355.347 201.762 356.274C201.24 357.201 201.042 358.083 200.826 358.083Z" fill="#263238"/>
<path d="M194.4 344.916C194.301 345.105 193.347 344.727 192.141 344.7C190.935 344.673 189.954 344.97 189.864 344.781C189.774 344.592 190.764 343.881 192.159 343.953C193.554 344.025 194.508 344.763 194.4 344.916Z" fill="#263238"/>
<g opacity="0.3">
<path d="M195.822 332.307L195.327 336.294L173.943 334.197L174.231 330.597L195.822 332.307Z" fill="black"/>
</g>
<path d="M175.202 64.3636C176.216 55.2192 169.625 46.9838 160.481 45.9694C151.336 44.955 143.101 51.5457 142.087 60.6901C141.072 69.8345 147.663 78.0699 156.807 79.0843C165.952 80.0987 174.187 73.508 175.202 64.3636Z" fill="#308772"/>
<path d="M361.386 255.024L344.763 216.432L174.492 54.7109L152.019 79.5419L321.39 240.039L361.386 255.024Z" fill="#308772"/>
<g opacity="0.7">
<path d="M321.39 240.039C321.651 238.392 323.082 237.24 324.648 237.825C323.799 236.511 323.384 234.964 323.46 233.402C323.536 231.84 324.1 230.341 325.073 229.116C326.046 227.891 327.378 227.001 328.882 226.573C330.386 226.145 331.987 226.199 333.459 226.728C333.144 225.216 333.237 223.647 333.727 222.182C334.217 220.718 335.088 219.409 336.25 218.391C337.411 217.373 338.822 216.682 340.339 216.389C341.855 216.095 343.422 216.209 344.88 216.72L361.386 255.024L321.39 240.039Z" fill="white"/>
</g>
<path d="M354.699 239.499C354.699 239.499 346.86 237.699 345.006 248.886L361.386 255.024L354.699 239.499Z" fill="#263238"/>
<path opacity="0.3" d="M333.459 226.728L164.628 67.8151L175.248 55.4761L344.763 216.432L344.88 216.72C343.662 216.285 342.359 216.137 341.073 216.288C339.378 216.484 337.774 217.159 336.447 218.232C334.831 219.547 333.75 221.406 333.405 223.461C333.22 224.544 333.239 225.652 333.459 226.728Z" fill="black"/>
<path opacity="0.3" d="M324.648 237.825L154.854 76.5L152.037 79.767L321.39 239.967C321.459 239.313 321.77 238.708 322.261 238.271C322.751 237.833 323.388 237.594 324.045 237.6C324.253 237.656 324.454 237.732 324.648 237.825Z" fill="black"/>
<path d="M342.396 229.131C342.358 229.062 342.307 229 342.245 228.951C342.183 228.901 342.112 228.865 342.036 228.843C341.82 228.781 341.588 228.802 341.387 228.902C341.185 229.002 341.028 229.173 340.947 229.383C340.728 230.074 340.728 230.816 340.947 231.507C341.053 231.939 341.292 232.327 341.631 232.614C341.812 232.778 342.033 232.891 342.271 232.945C342.509 232.999 342.756 232.99 342.99 232.92C343.239 232.815 343.463 232.659 343.647 232.463C343.832 232.266 343.973 232.032 344.061 231.777C344.282 231.218 344.421 230.63 344.475 230.031C344.639 228.708 344.525 227.366 344.142 226.089C344.05 225.752 343.888 225.438 343.666 225.168C343.445 224.899 343.168 224.679 342.855 224.523C342.512 224.406 342.145 224.375 341.788 224.433C341.43 224.491 341.092 224.636 340.803 224.856C340.241 225.398 339.792 226.046 339.483 226.763C339.174 227.48 339.011 228.252 339.003 229.032C338.88 230.555 339.177 232.082 339.863 233.447C340.548 234.812 341.596 235.962 342.891 236.772C343.185 236.928 343.51 237.015 343.842 237.026C344.175 237.037 344.505 236.972 344.808 236.835C345.378 236.547 345.872 236.127 346.248 235.611C346.937 234.674 347.483 233.64 347.868 232.542C348.428 230.943 348.667 229.248 348.57 227.556C348.525 226.953 348.462 226.494 348.408 226.188C348.354 225.882 348.336 225.711 348.336 225.711C348.502 226.299 348.611 226.902 348.66 227.511C348.793 229.22 348.575 230.938 348.021 232.56C347.641 233.679 347.095 234.735 346.401 235.692C346.007 236.238 345.489 236.682 344.889 236.988C344.558 237.138 344.197 237.211 343.833 237.2C343.47 237.189 343.114 237.095 342.792 236.925C341.453 236.101 340.369 234.923 339.659 233.52C338.948 232.117 338.641 230.545 338.769 228.978C338.826 228.158 339.005 227.351 339.3 226.584C339.57 225.819 340.05 225.145 340.686 224.64C341.004 224.396 341.378 224.235 341.774 224.172C342.171 224.109 342.576 224.146 342.954 224.28C343.297 224.446 343.6 224.683 343.843 224.977C344.085 225.271 344.261 225.613 344.358 225.981C344.747 227.291 344.857 228.667 344.682 230.022C344.627 230.641 344.478 231.248 344.241 231.822C344.142 232.1 343.984 232.354 343.779 232.566C343.575 232.779 343.327 232.945 343.053 233.055C342.793 233.126 342.52 233.132 342.257 233.07C341.995 233.009 341.752 232.883 341.55 232.704C341.196 232.388 340.948 231.97 340.839 231.507C340.631 230.789 340.657 230.023 340.911 229.32C341.005 229.097 341.179 228.917 341.399 228.816C341.619 228.714 341.868 228.698 342.099 228.771C342.369 228.924 342.396 229.14 342.396 229.131Z" fill="white"/>
<path d="M338.049 245.898C338.049 245.898 338.256 245.466 338.463 244.638C338.734 243.456 338.764 242.232 338.553 241.038C338.228 239.275 337.696 237.556 336.969 235.917C336.042 233.903 335.452 231.75 335.223 229.545C335.123 227.305 335.687 225.085 336.843 223.164C337.788 221.606 339.106 220.307 340.677 219.384C341.727 218.759 342.874 218.314 344.07 218.07C344.505 217.973 344.948 217.916 345.393 217.899L345.06 217.962C344.835 217.962 344.502 218.052 344.088 218.151C342.914 218.434 341.79 218.899 340.758 219.528C339.224 220.454 337.942 221.743 337.023 223.281C335.903 225.165 335.359 227.337 335.457 229.527C335.682 231.706 336.26 233.833 337.167 235.827C337.891 237.483 338.411 239.22 338.715 241.002C338.907 242.2 338.852 243.425 338.553 244.602C338.445 245.055 338.275 245.491 338.049 245.898Z" fill="white"/>
<path d="M328.77 243C329.524 242.626 330.111 241.984 330.417 241.2C331.028 239.249 331.331 237.214 331.317 235.17C331.366 233.125 331.228 231.079 330.903 229.059C330.777 228.285 330.651 227.664 330.57 227.259C330.509 227.038 330.47 226.812 330.453 226.584C330.453 226.584 330.534 226.818 330.66 227.241C330.786 227.664 330.921 228.285 331.065 229.041C331.641 232.187 331.714 235.404 331.281 238.572C331.183 239.499 330.955 240.408 330.606 241.272C330.361 241.861 329.956 242.369 329.436 242.739C329.232 242.866 329.006 242.955 328.77 243Z" fill="white"/>
<path d="M326.025 228.168C326.244 228.574 326.418 229.003 326.547 229.446C326.945 230.508 327.098 231.646 326.997 232.776C326.947 233.347 326.772 233.9 326.482 234.395C326.193 234.89 325.797 235.315 325.323 235.638C325.033 235.827 324.709 235.958 324.369 236.025C324.135 236.07 324 236.025 324 236.025C324.438 235.909 324.854 235.724 325.233 235.476C325.668 235.151 326.029 234.738 326.293 234.263C326.557 233.788 326.717 233.263 326.763 232.722C326.856 231.628 326.73 230.527 326.394 229.482C326.245 229.052 326.122 228.613 326.025 228.168Z" fill="white"/>
<path d="M343.35 248.4L343.278 248.211C343.233 248.085 343.161 247.905 343.098 247.671C343.001 247.381 342.959 247.076 342.972 246.771C343.021 246.362 343.166 245.97 343.395 245.628C343.947 244.746 344.548 243.896 345.195 243.081C345.925 242.043 346.57 240.948 347.121 239.805C348.097 237.711 348.9 235.541 349.524 233.316C349.749 232.578 349.947 231.912 350.127 231.3C350.19 231.048 350.271 230.802 350.37 230.562C350.338 230.82 350.287 231.076 350.217 231.327C350.1 231.804 349.92 232.506 349.686 233.361C349.098 235.611 348.309 237.804 347.328 239.913C346.775 241.068 346.118 242.17 345.366 243.207C344.664 244.161 343.962 244.953 343.512 245.709C343.309 245.986 343.172 246.306 343.111 246.645C343.05 246.983 343.067 247.331 343.161 247.662C343.241 247.903 343.304 248.15 343.35 248.4Z" fill="white"/>
<path d="M167.636 47.7077L143.95 71.5347C143.617 71.8696 143.619 72.411 143.954 72.7439L151.3 80.047C151.635 80.38 152.176 80.3784 152.509 80.0435L176.195 56.2164C176.528 55.8815 176.527 55.3402 176.192 55.0073L168.845 47.7041C168.51 47.3712 167.969 47.3728 167.636 47.7077Z" fill="#E0E0E0"/>
<path d="M176.202 56.2232C176.245 56.1596 176.284 56.0934 176.319 56.0252C176.372 55.9248 176.403 55.8145 176.411 55.7015C176.419 55.5884 176.403 55.4749 176.364 55.3682C176.274 55.0802 175.923 54.8642 175.617 54.5312L174.492 53.4422L171.414 50.4452L169.497 48.6002L168.984 48.0872C168.845 47.9115 168.662 47.775 168.453 47.6912C168.354 47.6613 168.249 47.6539 168.146 47.6695C168.044 47.685 167.946 47.7232 167.859 47.7812C167.706 47.8982 167.508 48.1322 167.328 48.3032C161.37 54.3242 153.18 62.6042 144.126 71.7032C144.023 71.8076 143.959 71.9455 143.948 72.0922C143.936 72.2389 143.977 72.3849 144.063 72.5042C144.27 72.7472 144.603 73.0532 144.873 73.3232L146.556 74.9972L149.832 78.3002L151.434 79.8932C151.527 79.9976 151.65 80.069 151.787 80.0967C151.923 80.1243 152.065 80.1066 152.19 80.0462C152.249 80.0147 152.304 79.9753 152.352 79.9292L152.55 79.7312L152.937 79.3442L155.961 76.3112L166.5 65.7992L173.601 58.7612L175.5 56.8622L176.013 56.3852L176.202 56.2232C176.16 56.2924 176.108 56.3559 176.049 56.4122L175.563 56.9342L173.7 58.8872L166.707 66.0332C163.728 69.0392 160.2 72.6122 156.285 76.5812C155.304 77.5712 154.305 78.5882 153.27 79.6232L152.883 80.0102L152.694 80.2082C152.61 80.2921 152.513 80.362 152.406 80.4152C152.196 80.5173 151.959 80.5496 151.729 80.5075C151.499 80.4655 151.289 80.3511 151.128 80.1812L149.526 78.5882L146.241 75.3302L144.558 73.6562C144.27 73.3592 144.009 73.1342 143.658 72.7562C143.512 72.545 143.443 72.2894 143.465 72.0332C143.486 71.777 143.596 71.5363 143.775 71.3522L167.076 48.0152C167.261 47.8182 167.456 47.6319 167.661 47.4572C167.793 47.3715 167.942 47.3158 168.097 47.294C168.253 47.2723 168.411 47.285 168.561 47.3312C168.814 47.4381 169.036 47.6049 169.209 47.8172L169.713 48.3302L171.603 50.2382L174.627 53.2982L175.725 54.4142C176.022 54.7562 176.364 54.9812 176.463 55.3142C176.498 55.4326 176.508 55.5568 176.492 55.6791C176.477 55.8014 176.436 55.9192 176.373 56.0252C176.335 56.1054 176.276 56.1738 176.202 56.2232Z" fill="#263238"/>
<path d="M146.808 69.0122C148.372 70.1907 149.841 71.4908 151.2 72.9002C152.67 74.2018 154.036 75.6161 155.286 77.1302C153.714 75.9545 152.24 74.6543 150.876 73.2422C149.412 71.9407 148.051 70.5264 146.808 69.0122Z" fill="#263238"/>
<path d="M155.547 59.6519C157.185 60.8551 158.748 62.1565 160.227 63.5489C161.803 64.8218 163.306 66.1829 164.727 67.6259C163.008 66.5426 161.399 65.2947 159.921 63.8999C158.335 62.6226 156.87 61.2004 155.547 59.6519Z" fill="#263238"/>
<path d="M174.861 57.4742C173.26 56.301 171.755 55.0008 170.361 53.5862C168.849 52.285 167.441 50.8677 166.149 49.3472C167.748 50.5273 169.253 51.8302 170.649 53.2442C172.16 54.5436 173.568 55.9578 174.861 57.4742Z" fill="#263238"/>
<path d="M229.248 109.287C229.248 109.287 221.229 110.187 218.826 110.493C216.423 110.799 213.192 111.492 212.067 113.4C211.608 114.174 204.579 124.461 204.579 124.461L201.879 125.217L206.172 137.025L213.435 133.425C213.435 133.425 215.901 130.653 217.872 128.025C219.843 125.397 220.437 124.425 220.437 124.425C220.437 124.425 227.637 124.758 229.086 123.525C229.314 123.269 229.463 122.953 229.517 122.615C229.571 122.277 229.528 121.931 229.392 121.617L221.562 120.933C221.562 120.933 230.076 120.933 231.462 119.97C231.579 119.887 231.69 119.796 231.795 119.7C231.973 119.51 232.091 119.272 232.135 119.015C232.179 118.759 232.146 118.495 232.042 118.257C231.938 118.018 231.766 117.816 231.548 117.674C231.329 117.532 231.075 117.457 230.814 117.459L221.643 117.396C221.643 117.396 232.173 116.442 232.443 115.263C232.479 115.073 232.503 114.88 232.515 114.687C232.527 114.508 232.501 114.33 232.439 114.162C232.377 113.994 232.28 113.842 232.156 113.714C232.031 113.585 231.881 113.485 231.715 113.419C231.549 113.352 231.371 113.321 231.192 113.328L222.597 113.598C222.597 113.598 230.913 112.275 230.994 111.105C231.156 108.9 229.248 109.287 229.248 109.287Z" fill="#FFBF9D"/>
<path d="M174.906 132.102C176.019 130.481 177.477 129.126 179.174 128.134C180.871 127.141 182.767 126.535 184.725 126.36L202.221 124.497L207.459 140.877L182.331 147.42" fill="#455A64"/>
<path d="M182.331 147.42C182.479 147.341 182.636 147.284 182.799 147.249L184.185 146.853L189.396 145.431L207.396 140.661L207.243 140.949L204.102 131.157C203.382 128.898 202.68 126.657 201.996 124.569L202.239 124.731L190.665 125.928L185.697 126.441C184.273 126.516 182.866 126.783 181.512 127.233C179.576 127.888 177.815 128.978 176.364 130.419C175.356 131.445 174.951 132.129 174.906 132.102C174.992 131.929 175.091 131.764 175.203 131.607C175.518 131.149 175.867 130.716 176.247 130.311C177.678 128.795 179.449 127.641 181.413 126.945C182.783 126.459 184.212 126.157 185.661 126.045L190.62 125.496L202.194 124.236H202.383L202.437 124.416C203.121 126.531 203.823 128.736 204.543 130.995C205.641 134.424 206.694 137.727 207.666 140.787L207.738 141.021L207.513 141.075L189.513 145.683L184.275 146.979L182.862 147.312C182.689 147.365 182.511 147.401 182.331 147.42Z" fill="#263238"/>
<path d="M268.722 143.847C268.722 143.847 273.753 142.128 275.085 143.037C275.916 143.628 276.545 144.461 276.885 145.422C276.885 145.422 279.963 145.422 279.045 148.653C279.045 148.653 281.745 149.202 280.926 152.343C280.926 152.343 282.906 152.289 281.961 154.899C281.016 157.509 276.975 162.693 276.048 163.386C274.131 164.835 273.6 162.54 274.068 161.586C274.536 160.632 277.2 155.7 277.2 155.7C277.2 155.7 272.619 162.9 271.071 161.703C270.171 161.019 270.378 159.957 271.548 157.842C272.358 156.375 273.843 153.477 273.843 153.477L270.243 157.923C270.094 158.113 269.894 158.255 269.666 158.333C269.438 158.411 269.193 158.422 268.959 158.364C268.725 158.306 268.513 158.182 268.348 158.006C268.183 157.831 268.072 157.611 268.029 157.374C267.965 156.916 268.027 156.449 268.209 156.024C268.954 154.323 269.858 152.695 270.909 151.164L267.984 154.035C267.829 154.189 267.643 154.308 267.439 154.386C267.234 154.463 267.016 154.496 266.798 154.484C266.579 154.471 266.366 154.412 266.172 154.312C265.978 154.211 265.807 154.071 265.671 153.9C265.469 153.673 265.339 153.39 265.299 153.089C265.259 152.787 265.31 152.48 265.446 152.208C266.247 150.597 270.711 145.908 270.711 145.908L268.722 143.847Z" fill="#FFBF9D"/>
<path d="M182.043 167.481C182.043 167.481 177.867 188.451 182.115 197.586C186.363 206.721 197.505 211.086 209.115 214.686C224.604 219.429 251.37 234.162 251.37 234.162C251.37 234.162 247.905 249.462 245.619 258.57C243.423 267.345 237.285 299.286 237.285 299.286L265.446 303.174L285.525 230.913C285.525 230.913 291.132 216.072 278.946 208.71C268.506 202.41 231.588 177.48 231.588 177.48L228.726 170.865L182.043 167.481Z" fill="#263238"/>
<path d="M182.556 192.447L187.794 204.462L180.666 261.522C180.666 261.522 174.564 280.278 173.214 290.178C171.864 300.078 168.885 339.948 168.885 339.948H196.488C196.488 339.948 200.772 291.438 209.088 276.867C215.613 265.392 220.041 245.421 220.311 244.116C220.581 242.811 230.211 210.816 230.211 210.816L216.711 183.069L182.556 192.447Z" fill="#263238"/>
<path d="M261.09 227.475C259.311 228.349 257.58 229.319 255.906 230.382C254.337 231.583 252.835 232.869 251.406 234.234C251.675 233.704 252.031 233.224 252.459 232.812C253.423 231.76 254.501 230.818 255.672 230.004C256.842 229.187 258.101 228.504 259.425 227.97C259.948 227.712 260.511 227.545 261.09 227.475Z" fill="#455A64"/>
<path d="M265.428 303.165L264.933 303.12L263.484 302.94L257.895 302.211L237.249 299.439H237.078V299.268C238.671 290.925 240.579 280.998 242.847 269.964C243.414 267.201 244.008 264.375 244.647 261.495L246.708 252.684C248.121 246.699 249.579 240.489 251.073 234.117L251.19 234.369C249.129 233.244 246.897 232.065 244.647 230.886C238.347 227.61 232.191 224.586 226.134 221.76C220.342 219.022 214.381 216.656 208.287 214.677C202.437 212.877 196.902 210.852 192.168 208.08C189.864 206.772 187.745 205.162 185.868 203.292C184.139 201.554 182.747 199.509 181.764 197.262C180.953 195.19 180.453 193.009 180.279 190.791C180.18 189.747 180.09 188.73 180.081 187.749C180.072 186.768 180.081 185.805 180.081 184.878C180.14 181.724 180.365 178.576 180.756 175.446C181.062 172.872 181.386 170.883 181.656 169.542C181.782 168.876 181.881 168.372 181.953 168.012C182.025 167.652 182.07 167.499 182.07 167.499C182.07 167.499 182.07 167.679 181.998 168.021C181.926 168.363 181.863 168.921 181.755 169.551C181.548 170.901 181.251 172.899 180.972 175.473C180.693 178.047 180.414 181.206 180.378 184.887C180.378 185.787 180.378 186.759 180.432 187.731C180.486 188.703 180.54 189.72 180.648 190.755C180.828 192.941 181.332 195.089 182.142 197.127C183.114 199.331 184.491 201.334 186.201 203.031C188.059 204.872 190.153 206.458 192.429 207.747C197.136 210.447 202.644 212.454 208.485 214.263C214.6 216.236 220.582 218.599 226.395 221.337C232.461 224.127 238.662 227.196 244.935 230.472C247.194 231.651 249.435 232.83 251.487 233.964L251.649 234.045L251.604 234.216C250.101 240.597 248.634 246.816 247.221 252.792L245.151 261.594C244.494 264.465 243.9 267.291 243.351 270.045C241.065 281.07 239.121 290.997 237.483 299.331L237.348 299.142L257.967 302.058L263.547 302.868L264.996 303.084C265.266 303.12 265.428 303.165 265.428 303.165Z" fill="#455A64"/>
</svg>
