<svg width="34" height="34" viewBox="0 0 34 34" fill="none" xmlns="http://www.w3.org/2000/svg">
<path d="M19.6019 16.7288L15.9561 15.0276C15.6379 14.8799 15.3766 15.0454 15.3766 15.3977V18.602C15.3766 18.9542 15.6379 19.1198 15.9561 18.9721L19.6003 17.2709C19.9201 17.1216 19.9201 16.8781 19.6019 16.7288ZM16.9998 1.4165C8.39329 1.4165 1.4165 8.39329 1.4165 16.9998C1.4165 25.6064 8.39329 32.5832 16.9998 32.5832C25.6064 32.5832 32.5832 25.6064 32.5832 16.9998C32.5832 8.39329 25.6064 1.4165 16.9998 1.4165ZM16.9998 23.3306C9.02312 23.3306 8.88352 22.6115 8.88352 16.9998C8.88352 11.3882 9.02312 10.6691 16.9998 10.6691C24.9766 10.6691 25.1162 11.3882 25.1162 16.9998C25.1162 22.6115 24.9766 23.3306 16.9998 23.3306Z" fill="#3C6562"/>
</svg>
